<?xml version="1.0" encoding="UTF-8" standalone="no"?>
<!-- Created with Inkscape (http://www.inkscape.org/) -->

<svg
   xmlns:dc="http://purl.org/dc/elements/1.1/"
   xmlns:cc="http://creativecommons.org/ns#"
   xmlns:rdf="http://www.w3.org/1999/02/22-rdf-syntax-ns#"
   xmlns:svg="http://www.w3.org/2000/svg"
   xmlns="http://www.w3.org/2000/svg"
   xmlns:xlink="http://www.w3.org/1999/xlink"
   xmlns:sodipodi="http://sodipodi.sourceforge.net/DTD/sodipodi-0.dtd"
   xmlns:inkscape="http://www.inkscape.org/namespaces/inkscape"
   width="628.36646"
   height="715.7702"
   id="svg2"
   version="1.1"
   inkscape:version="0.92.2 (5c3e80d, 2017-08-06)"
   sodipodi:docname="Logo_Etoile_du_Sahel.svg">
  <defs
     id="defs4">
    <inkscape:path-effect
       effect="skeletal"
       id="path-effect5142"
       is_visible="true"
       pattern="M 0,5 10,10 10,0 z"
       copytype="single_stretched"
       prop_scale="1"
       scale_y_rel="false"
       spacing="0"
       normal_offset="0"
       tang_offset="0"
       prop_units="false"
       vertical_pattern="false"
       fuse_tolerance="0" />
    <linearGradient
       id="linearGradient4921">
      <stop
         style="stop-color:#ffffff;stop-opacity:0;"
         offset="0"
         id="stop4923" />
      <stop
         style="stop-color:#000000;stop-opacity:1;"
         offset="1"
         id="stop4925" />
    </linearGradient>
    <inkscape:perspective
       sodipodi:type="inkscape:persp3d"
       inkscape:vp_x="0 : 526.18109 : 1"
       inkscape:vp_y="0 : 1000 : 0"
       inkscape:vp_z="744.09448 : 526.18109 : 1"
       inkscape:persp3d-origin="372.04724 : 350.78739 : 1"
       id="perspective10" />
    <inkscape:perspective
       id="perspective2884"
       inkscape:persp3d-origin="0.5 : 0.33333333 : 1"
       inkscape:vp_z="1 : 0.5 : 1"
       inkscape:vp_y="0 : 1000 : 0"
       inkscape:vp_x="0 : 0.5 : 1"
       sodipodi:type="inkscape:persp3d" />
    <radialGradient
       inkscape:collect="always"
       xlink:href="#linearGradient4921"
       id="radialGradient4927"
       cx="398.00009"
       cy="577.59052"
       fx="398.00009"
       fy="577.59052"
       r="305.06607"
       gradientUnits="userSpaceOnUse"
       gradientTransform="matrix(0.63962999,-4.4321859e-7,4.2182797e-7,0.60732286,143.42706,226.80691)" />
    <inkscape:perspective
       id="perspective3573"
       inkscape:persp3d-origin="0.5 : 0.33333333 : 1"
       inkscape:vp_z="1 : 0.5 : 1"
       inkscape:vp_y="0 : 1000 : 0"
       inkscape:vp_x="0 : 0.5 : 1"
       sodipodi:type="inkscape:persp3d" />
    <linearGradient
       id="linearGradient4921-5">
      <stop
         style="stop-color:#ffffff;stop-opacity:0;"
         offset="0"
         id="stop4923-8" />
      <stop
         style="stop-color:#000000;stop-opacity:1;"
         offset="1"
         id="stop4925-9" />
    </linearGradient>
  </defs>
  <sodipodi:namedview
     id="base"
     pagecolor="#ffffff"
     bordercolor="#666666"
     borderopacity="1.0"
     inkscape:pageopacity="0.0"
     inkscape:pageshadow="2"
     inkscape:zoom="0.70417587"
     inkscape:cx="248.00124"
     inkscape:cy="290.33277"
     inkscape:document-units="px"
     inkscape:current-layer="layer5"
     showgrid="false"
     inkscape:snap-object-midpoints="true"
     showguides="true"
     inkscape:guide-bbox="true"
     inkscape:window-width="1366"
     inkscape:window-height="713"
     inkscape:window-x="0"
     inkscape:window-y="27"
     inkscape:window-maximized="1"
     inkscape:snap-bbox="true"
     inkscape:bbox-paths="true" />
  <metadata
     id="metadata7">
    <rdf:RDF>
      <cc:Work
         rdf:about="">
        <dc:format>image/svg+xml</dc:format>
        <dc:type
           rdf:resource="http://purl.org/dc/dcmitype/StillImage" />
        <dc:title />
      </cc:Work>
    </rdf:RDF>
  </metadata>
  <g
     inkscape:groupmode="layer"
     id="layer3"
     inkscape:label="texte chemin"
     style="display:inline"
     transform="translate(-68.102472,-187.37772)">
    <path
       sodipodi:type="arc"
       style="fill:#aa0000;fill-opacity:0.94117647;stroke:none"
       id="path3847"
       sodipodi:cx="417.14285"
       sodipodi:cy="589.50507"
       sodipodi:rx="301.42856"
       sodipodi:ry="301.42856"
       d="M 718.57141,589.50507 A 301.42856,301.42856 0 0 1 417.14285,890.93362 301.42856,301.42856 0 0 1 115.71429,589.50507 301.42856,301.42856 0 0 1 417.14285,288.07651 301.42856,301.42856 0 0 1 718.57141,589.50507 Z"
       transform="matrix(1.0423141,0,0,1.0423141,-52.508169,-54.087236)"
       inkscape:export-filename="/home/habib/Bureau/Logos vectoriels/path5085.png"
       inkscape:export-xdpi="217"
       inkscape:export-ydpi="217" />
    <path
       transform="translate(-34.857145,-29.14286)"
       d="M 718.57141,589.50507 A 301.42856,301.42856 0 0 1 417.14285,890.93362 301.42856,301.42856 0 0 1 115.71429,589.50507 301.42856,301.42856 0 0 1 417.14285,288.07651 301.42856,301.42856 0 0 1 718.57141,589.50507 Z"
       sodipodi:ry="301.42856"
       sodipodi:rx="301.42856"
       sodipodi:cy="589.50507"
       sodipodi:cx="417.14285"
       style="fill:none;stroke:#fff9f9;stroke-width:6;stroke-linecap:square;stroke-linejoin:miter;stroke-miterlimit:4;stroke-opacity:1;stroke-dasharray:none;stroke-dashoffset:100"
       sodipodi:type="arc"
       inkscape:export-filename="/home/habib/Bureau/Logos vectoriels/path5085.png"
       inkscape:export-xdpi="217"
       inkscape:export-ydpi="217"
       id="path25" />
    <path
       sodipodi:type="arc"
       style="fill:none;stroke:#ffffff;stroke-width:5.53550816;stroke-linecap:square;stroke-linejoin:miter;stroke-miterlimit:4;stroke-opacity:1;stroke-dasharray:none;stroke-dashoffset:100"
       sodipodi:cx="417.14285"
       sodipodi:cy="589.50507"
       sodipodi:rx="301.42856"
       sodipodi:ry="301.42856"
       d="M 718.57141,589.50507 A 301.42856,301.42856 0 0 1 417.14285,890.93362 301.42856,301.42856 0 0 1 115.71429,589.50507 301.42856,301.42856 0 0 1 417.14285,288.07651 301.42856,301.42856 0 0 1 718.57141,589.50507 Z"
       transform="matrix(0.72260754,0,0,0.72260754,80.855137,134.3814)"
       inkscape:export-filename="/home/habib/Bureau/Logos vectoriels/path5085.png"
       inkscape:export-xdpi="217"
       inkscape:export-ydpi="217"
       id="path27" />
    <path
       transform="matrix(0.6708903,0,0,0.6708903,102.42861,164.86897)"
       d="M 718.57141,589.50507 A 301.42856,301.42856 0 0 1 417.14285,890.93362 301.42856,301.42856 0 0 1 115.71429,589.50507 301.42856,301.42856 0 0 1 417.14285,288.07651 301.42856,301.42856 0 0 1 718.57141,589.50507 Z"
       sodipodi:ry="301.42856"
       sodipodi:rx="301.42856"
       sodipodi:cy="589.50507"
       sodipodi:cx="417.14285"
       style="fill:none;stroke:#ffffff;stroke-width:10.43389702;stroke-linecap:square;stroke-linejoin:miter;stroke-miterlimit:4;stroke-opacity:1;stroke-dasharray:none;stroke-dashoffset:100"
       sodipodi:type="arc"
       inkscape:export-filename="/home/habib/Bureau/Logos vectoriels/path5085.png"
       inkscape:export-xdpi="217"
       inkscape:export-ydpi="217"
       id="path29" />
    <g
       transform="matrix(-0.20957356,-0.87250825,0.88848484,-0.20811945,-1186.6083,720.12804)"
       style="font-size:77.3574295px;font-style:normal;font-variant:normal;font-weight:bold;font-stretch:normal;text-align:start;line-height:125%;writing-mode:lr-tb;text-anchor:start;fill:#ffffff;fill-opacity:1;stroke:none;font-family:AlBattar;-inkscape-font-specification:AlBattar Bold"
       id="text3988"
       inkscape:export-filename="/home/habib/Bureau/Logos vectoriels/path5085.png"
       inkscape:export-xdpi="217"
       inkscape:export-ydpi="217">
      <path
         d="m -447.4355,1573.5608 0.17627,-3.4896 -30.48226,-21.2034 3.5339,-5.0804 39.51404,27.4859 -12.74195,2.2875"
         style="fill:#ffffff;font-family:AlBattar;-inkscape-font-specification:AlBattar Bold"
         id="path4371" />
      <path
         d="m -469.68757,1537.7739 9.27226,-11.7893 5.33727,4.1978 -5.49959,6.9925 23.95019,18.8367 3.39923,-1.2631 1.47584,12.8614 -37.9352,-29.836"
         style="fill:#ffffff;font-family:AlBattar;-inkscape-font-specification:AlBattar Bold"
         id="path4373" />
      <path
         d="m -425.55936,1543.3844 -0.32741,-7.2859 7.34396,-0.3909 0.3646,7.4364 -7.38115,0.2404 m -34.94766,-17.5025 17.62836,-19.2873 5.01215,4.5811 -7.24851,7.9306 3.87014,3.5372 3.2804,-0.7862 0.52045,12.9354 -11.99109,-10.9598 -6.05975,6.63 -5.01215,-4.581"
         style="fill:#ffffff;font-family:AlBattar;-inkscape-font-specification:AlBattar Bold"
         id="path4375" />
      <path
         d="m -443.17125,1506.2146 6.51445,-5.6728 c -0.18812,-0.2161 -0.67908,-0.6054 -1.47287,-1.1679 -0.79374,-0.5625 -1.58646,-0.9929 -2.37819,-1.2913 l -0.88856,-0.3659 -1.25237,-0.3911 -1.02239,-0.1925 -1.30152,-0.1203 c 0.49699,-0.4328 1.28491,-0.815 2.36377,-1.1466 1.07892,-0.3317 2.17487,-0.4692 3.28785,-0.4127 1.09422,0.035 2.07479,0.2448 2.94172,0.6296 0.84538,0.4036 1.75761,1.0149 2.73672,1.8339 l 22.8168,-19.869 4.45925,5.1208 -22.00655,19.1635 2.19939,1.6749 c 1.08159,0.8058 2.47124,1.2673 4.16896,1.3845 l 0.84887,0.059 0.88965,-0.091 2.11597,-0.6459 c 1.41902,-0.5519 3.27369,-1.825 5.56401,-3.8194 l 1.75015,-1.5241 c 2.41997,-2.1073 4.20284,-3.2229 5.34862,-3.3469 1.14577,-0.124 2.19845,0.365 3.15805,1.467 l 4.23346,4.8615 -2.06991,-0.021 c -0.68998,-0.01 -2.04903,0.2646 -4.07717,0.815 l -1.06845,0.4745 -1.11342,0.6847 -1.44171,1.0275 -0.84267,0.7338 c -2.03104,1.7686 -3.37831,2.7518 -4.04182,2.9497 -1.18764,0.7303 -2.25609,1.2048 -3.20535,1.4236 -1.38903,0.4117 -2.7059,0.5137 -3.95063,0.3059 -1.33671,-0.052 -2.73893,-0.3313 -4.20665,-0.8388 -1.22795,-0.4503 -2.46496,-1.0637 -3.71103,-1.8402 -1.24883,-0.7361 -2.55516,-1.6691 -3.91898,-2.7989 l -6.9682,6.0679 -4.45925,-5.1208 m 7.33235,-21.4866 0.51394,-7.0011 6.70207,0.4324 -0.29543,6.9247 -6.92058,-0.356"
         style="fill:#ffffff;font-family:AlBattar;-inkscape-font-specification:AlBattar Bold"
         id="path4377" />
      <path
         d="m -410.67205,1478.1144 16.91078,-11.1247 -0.28343,-0.4308 c -0.12596,-0.1915 -0.22012,-0.3868 -0.28249,-0.5858 -0.12595,-0.1915 -0.25884,-0.5499 -0.39867,-1.0752 -0.72114,-1.6176 -1.11824,-2.9511 -1.19128,-4.0005 l -0.10955,-1.574 c -0.0289,-0.4611 0.018,-0.9893 0.14084,-1.5845 l 0.51595,-2.5 c 0.60792,-1.9431 1.78554,-3.4894 3.53285,-4.6389 l 1.65063,-0.9315 c 0.33512,-0.2205 0.62991,-0.3458 0.88437,-0.3761 l 1.05065,-0.2796 -0.24095,0.4157 -0.48283,0.9864 -0.36284,0.856 -0.33923,0.8919 -0.46206,1.4871 c -0.1556,0.754 -0.21641,1.5999 -0.18244,2.5378 l 0.13316,1.61 c 0.10644,0.7873 0.34229,1.8496 0.70756,3.1869 0.34199,1.2497 0.64683,2.078 0.9145,2.4849 l 3.56651,5.4215 0.39019,0.5149 0.44877,0.6822 c 0.80306,1.2207 1.48707,2.4169 2.05203,3.5885 0.55677,1.2113 0.84805,2.3057 0.87384,3.2833 0.0995,1.9236 -0.2294,3.7175 -0.98658,5.3817 -0.62047,1.4027 -1.66644,2.8624 -3.1379,4.3791 -1.78324,1.8247 -3.07518,3.2233 -3.8758,4.1958 -0.82453,0.9882 -1.30988,1.7362 -1.45604,2.2439 l -0.65388,1.6648 -9.77837,-14.8643 -5.81645,3.8263 -3.73184,-5.6728 m 14.25171,-1.2476 5.07814,7.7193 1.0195,-1.0307 1.33225,-1.4937 0.59998,-0.6519 0.49227,-0.5811 c 0.1682,-0.2135 0.30143,-0.5584 0.3997,-1.0345 l 0.20035,-1.5722 c 0.0189,-0.4926 -0.10797,-1.1808 -0.38069,-2.0645 -0.32057,-0.8522 -0.79578,-1.7571 -1.42564,-2.7145 l -0.37791,-0.5745 -0.25981,-0.3949 -6.67814,4.3932"
         style="fill:#ffffff;font-family:AlBattar;-inkscape-font-specification:AlBattar Bold"
         id="path4379" />
      <path
         d="m -339.90592,1481.3918 1.95803,-2.8939 -15.09489,-33.9249 5.65415,-2.5158 19.56745,43.9767 -12.08474,-4.6421"
         style="fill:#ffffff;font-family:AlBattar;-inkscape-font-specification:AlBattar Bold"
         id="path4381" />
      <path
         d="m -340.40713,1439.2553 14.04061,-5.2748 2.38802,6.3565 -8.32782,3.1286 10.71584,28.5237 3.56165,0.682 -5.40526,11.7634 -16.97304,-45.1794"
         style="fill:#ffffff;font-family:AlBattar;-inkscape-font-specification:AlBattar Bold"
         id="path4383" />
      <path
         d="m -326.48032,1433.6125 6.38131,-1.7554 c -0.37994,-1.3813 -0.58866,-3.1662 -0.62617,-5.3548 -0.0416,-1.7715 0.11855,-3.2419 0.48031,-4.4111 1.6184,-5.6751 5.17623,-9.2688 10.67353,-10.781 2.54149,-0.6992 5.52398,-0.8213 8.94748,-0.3665 l 1.0142,0.1222 -1.03593,0.2849 c -4.00557,1.102 -7.34841,3.0467 -10.02854,5.8343 -2.71532,2.7676 -3.9112,6.3058 -3.58764,10.6147 l 0.23629,1.183 c 0.62317,2.2652 1.71798,4.1927 3.28445,5.7824 1.54649,1.6249 3.06872,2.5137 4.5667,2.6662 l 2.31847,0.1645 c -0.7817,1.047 -1.31853,2.6062 -1.61051,4.6774 l 0.0229,1.8658 0.32025,1.6502 0.26941,0.8174 c 0.0836,0.3038 0.20484,0.5825 0.36369,0.836 l 0.45796,0.8546 c 0.18928,0.3639 0.4224,0.6712 0.69935,0.9219 l -2.30923,-1.1031 -2.92462,-1.5578 -1.58508,-0.9011 c -2.08097,-1.2997 -4.03631,-3.1687 -5.86602,-5.6072 l -1.32722,-1.9081 -7.33436,2.0176 -1.80103,-6.547"
         style="fill:#ffffff;font-family:AlBattar;-inkscape-font-specification:AlBattar Bold"
         id="path4385" />
      <path
         d="m -288.33746,1423.8118 19.57013,-3.3517 1.14627,6.6928 -13.08911,2.2418 1.56705,9.1496 2.81117,1.3934 -7.44945,10.4759 -4.55606,-26.6018 m -1.84507,-11.2821 5.01106,3.5456 7.08998,-10.2836 5.08243,3.7078 -3.58793,5.0183 -10.07899,-7.1686 -3.51655,5.1805"
         style="fill:#ffffff;font-family:AlBattar;-inkscape-font-specification:AlBattar Bold"
         id="path4387" />
      <path
         d="m -268.69768,1420.4836 15.14651,-1.4275 3.48405,36.9677 3.16847,1.5576 -8.21188,9.9684 -3.87923,-41.1608 -9.07079,0.8549 -0.63713,-6.7603"
         style="fill:#ffffff;font-family:AlBattar;-inkscape-font-specification:AlBattar Bold"
         id="path4389" />
      <path
         d="m -213.4126,1455.9737 5.12678,-4.7953 4.83952,5.085 -5.12929,4.8813 -4.83701,-5.171 m -23.26442,-38.2966 -0.40218,13.8325 19.54598,0.5683 2.06824,-0.1548 0.91086,-0.2745 0.52174,-0.1998 0.65437,-0.3249 c 0.4649,-0.2158 1.44845,-1.0185 2.95064,-2.4079 l 1.16188,-1.5141 0.40411,-0.5901 0.42284,-1.2346 -22.12347,-0.6432 0.19734,-6.7874 c 0.0134,-0.4582 -0.0323,-0.8608 -0.13686,-1.2078 -0.0514,-0.2022 -0.13191,-0.3908 -0.24151,-0.566 l -0.49801,-0.6164 c -0.36061,-0.4118 -0.71068,-0.6942 -1.05022,-0.8474 -0.36727,-0.1827 -0.823,-0.2819 -1.36717,-0.2977 -0.42954,-0.013 -0.79003,0.063 -1.08145,0.2265 -0.29051,0.1349 -0.61386,0.4121 -0.97006,0.8317 -0.62136,0.6698 -0.94371,1.4057 -0.96707,2.2076 m -6.27565,-0.054 0.0175,-0.6014 0.0262,-0.9021 c 0.0125,-0.4296 0.0499,-0.7295 0.11214,-0.8997 0.0117,-0.4009 0.15766,-0.9843 0.43784,-1.75 0.2558,-0.9098 0.47376,-1.5054 0.65387,-1.7868 0.24415,-0.5088 0.67481,-1.0265 1.292,-1.5532 0.38234,-0.3328 0.79161,-0.6076 1.22781,-0.8242 l 1.86469,-0.5477 c 1.67441,-0.4099 2.86942,-1.0918 3.58502,-2.0455 l 0.3182,-0.5927 0.41459,0.528 c 0.21749,0.4076 0.67712,0.8653 1.3789,1.3729 0.61927,0.3907 1.39684,0.7572 2.33273,1.0997 l 1.275,0.51 c 0.6504,0.3056 1.31134,0.7404 1.98282,1.3045 0.4744,0.4438 0.8477,0.9132 1.1199,1.4084 l 0.59566,1.6941 0.23277,0.8667 c 0.0751,0.3748 0.12491,0.6342 0.14935,0.7782 0.0245,0.1441 0.0318,0.3879 0.0217,0.7316 l -0.0225,0.7732 c -0.0116,0.401 0.008,0.7168 0.0584,0.9476 l 30.1137,0.8755 -0.19735,6.7874 -8.03318,-0.2335 -0.21233,7.3029 2.90167,2.2341 c -1.76445,0.5506 -3.43907,1.4621 -5.02388,2.7345 -1.61342,1.2716 -2.55484,2.1041 -2.82426,2.4976 l -1.30824,2.1117 0.3085,-10.6107 c -0.42225,1.7075 -1.35418,3.1995 -2.7958,4.4761 -2.02685,1.6895 -4.38631,2.4951 -7.07838,2.4169 l -25.51716,-0.7419 0.59202,-20.3622"
         style="fill:#ffffff;font-family:AlBattar;-inkscape-font-specification:AlBattar Bold"
         id="path4391" />
      <path
         d="m -193.72313,1419.3766 7.89419,1.5061 11.99188,19.7009 2.50761,-2.3654 0.33994,-0.6352 0.31383,-0.7276 0.11276,-0.591 -0.0883,-0.4544 -0.45409,-0.8304 -7.9109,-12.8847 -0.13858,-0.4202 c -0.13384,-0.5214 -0.17791,-1.0548 -0.13221,-1.6003 l 0.17746,-1.8474 c 0.31682,-1.6605 0.86404,-2.9998 1.64165,-4.0182 0.75489,-1.0518 1.90913,-2.0567 3.46272,-3.0145 2.85526,-1.8178 5.81668,-2.4341 8.88429,-1.8489 3.48977,0.6658 6.32928,2.1409 8.51853,4.4253 2.37682,2.5244 3.26186,5.3767 2.65513,8.5569 l -0.21941,0.9207 c -0.0591,0.3095 -0.17441,0.6084 -0.34605,0.8965 l -0.7443,1.608 -0.69794,1.1357 -0.56934,1.3789 -0.47685,1.3528 -0.0867,0.6835 -0.0444,0.6916 0.21469,1.3972 c 0.0656,0.4209 0.18341,0.7204 0.35356,0.8987 l 0.45603,1.0496 c -0.39807,0.099 -0.79411,0.111 -1.18813,0.036 -0.90057,-0.1718 -1.69451,-0.6733 -2.38181,-1.5044 -0.70339,-0.7468 -0.96649,-1.5845 -0.78932,-2.5132 0.0913,-0.4785 0.39105,-1.2088 0.89929,-2.191 -0.5923,-0.2589 -1.00834,-0.6007 -1.24813,-1.0257 -0.33493,-0.3847 -0.62025,-0.8767 -0.85596,-1.4758 -0.10849,-0.1957 -0.1895,-0.4591 -0.24302,-0.7902 -0.0481,-0.3592 -0.0454,-0.6795 0.008,-0.9609 0.043,-0.2252 0.35476,-0.8657 0.93539,-1.9216 0.028,0.6178 0.10221,1.0695 0.22274,1.355 0.12591,0.2574 0.51585,0.5068 1.1698,0.7482 0.75988,0.145 1.4629,-0.1001 2.10908,-0.7351 0.5899,-0.6459 0.98149,-1.4753 1.17478,-2.4885 l 0.12081,-0.6332 c 0.043,-0.2252 0.0243,-0.4329 -0.0561,-0.6233 -0.17108,-1.5493 -0.97817,-2.8992 -2.42126,-4.0495 -1.47122,-1.1557 -2.9667,-1.8786 -4.48645,-2.1685 -1.46344,-0.2792 -2.77015,-0.3098 -3.92015,-0.092 -1.17275,0.1847 -2.29736,0.7285 -3.37386,1.6314 l -0.73598,0.6472 -0.75014,0.9506 -0.6235,0.9749 -0.3541,0.9387 c -0.0966,0.5066 -0.13227,0.9227 -0.10693,1.2484 l 0.10638,0.589 0.16664,0.7319 0.1908,0.6051 8.43747,13.3352 0.21496,0.4785 0.20275,1.0012 0.0158,0.8343 -0.0686,0.8182 -0.21941,0.9207 c -0.0268,0.1407 -0.2018,0.3698 -0.5249,0.6874 l -1.26894,1.3767 -9.01313,9.1745 -13.77408,-22.9723 -6.45888,-1.2323 1.27253,-6.6699 m 20.38057,-18.9938 3.2875,4.7837 9.68385,-6.7278 3.25528,4.9525 -4.81776,3.2372 -6.55889,-9.6516 -4.84998,3.406"
         style="fill:#ffffff;font-family:AlBattar;-inkscape-font-specification:AlBattar Bold"
         id="path4393" />
      <path
         d="m -140.71936,1472.2151 3.42687,-0.6819 13.11079,-34.7399 5.78998,2.1851 -16.99547,45.0332 -5.33217,-11.7965"
         style="fill:#ffffff;font-family:AlBattar;-inkscape-font-specification:AlBattar Bold"
         id="path4395" />
      <path
         d="m -111.45658,1441.8934 13.694297,6.118 -2.769707,6.1997 -8.12241,-3.6287 -12.42863,27.8202 2.05387,2.9886 -12.11339,4.5673 19.68597,-44.0651"
         style="fill:#ffffff;font-family:AlBattar;-inkscape-font-specification:AlBattar Bold"
         id="path4397" />
      <path
         d="m -97.321602,1447.1089 45.188797,27.0107 -3.483827,5.8285 -9.959979,-5.9534 -1.91831,3.2093 1.729914,3.1369 -12.620436,3.0209 7.452743,-12.4685 -6.898208,-4.1232 -3.594074,6.0128 1.707864,3.1738 -12.546658,3.065 9.194657,-15.3827 -6.566209,-3.9248 -5.181641,8.6689 1.560309,3.0856 -12.19261,3.2265 10.804273,-18.0755 -6.160433,-3.6823 3.483828,-5.8285"
         style="fill:#ffffff;font-family:AlBattar;-inkscape-font-specification:AlBattar Bold"
         id="path4399" />
      <path
         d="m -52.584359,1474.9604 11.996805,9.3558 -22.834513,29.2803 1.235809,3.3073 -12.813869,1.6155 25.42454,-32.6015 -7.184528,-5.6029 4.175756,-5.3545"
         style="fill:#ffffff;font-family:AlBattar;-inkscape-font-specification:AlBattar Bold"
         id="path4401" />
      <path
         d="m -32.160452,1490.7449 2.598514,2.5059 c 0.495773,-0.5965 0.900553,-1.1813 1.214343,-1.7544 l 0.470719,-0.8596 0.40224,-1.2838 c 0.583464,-1.3479 0.828828,-2.9024 0.736092,-4.6636 0.783699,0.7558 1.263539,1.5171 1.439519,2.2838 l 0.256291,0.7248 0.134755,0.727 0.183315,1.7292 c 0.158275,2.0234 -0.47455,4.0003 -1.89848,5.9308 l 21.6542781,20.8831 -4.713625,4.8877 -20.8809111,-20.1373 -1.508267,2.3069 c -0.648221,1.1262 -0.987123,2.5507 -1.016706,4.2736 -0.04201,1.0341 0.304848,2.2841 1.040584,3.7499 0.293891,0.5621 0.824554,1.3325 1.591989,2.3115 l 1.211961,1.4673 1.485966,1.4928 1.639539,1.5811 c 2.330431,2.2474 3.607198,3.9365 3.830303,5.0672 0.223139,1.1306 -0.182406,2.2321 -1.216636,3.3045 l -4.445128,4.6093 -0.15899,-2.0639 c -0.0736,-0.7079 -0.47275,-2.0481 -1.197461,-4.0207 l -0.565637,-1.0231 -0.778875,-1.0497 -1.118055,-1.317 -0.835236,-0.8055 c -1.938544,-1.8696 -3.035241,-3.1262 -3.290093,-3.77 -0.872014,-1.1594 -1.437651,-2.1826 -1.696911,-3.0694 -0.508141,-1.2066 -0.743044,-2.4282 -0.704709,-3.6649 -0.02126,-1.1748 0.154121,-2.6774 0.526158,-4.5078 l 1.395634,-3.4902 c 0.253444,-0.5517 1.107586,-2.0565 2.562429,-4.5144 l -3.062534,-2.9534 4.713625,-4.8877"
         style="fill:#ffffff;font-family:AlBattar;-inkscape-font-specification:AlBattar Bold"
         id="path4403" />
      <path
         d="m -5.2882838,1517.3342 15.1023793,18.0712 -5.2103202,4.3543 -5.26378546,-6.2985 -23.14964984,19.3465 0.213876,3.4057 -13.048173,-1.1372 31.8225248,-26.5945 -5.6771718,-6.7932 5.2103202,-4.3543"
         style="fill:#ffffff;font-family:AlBattar;-inkscape-font-specification:AlBattar Bold"
         id="path4405" />
      <path
         d="m 10.266726,1535.084 4.43962,6.699 -5.7108626,22.3455 3.4443636,0.1405 0.691881,-0.2007 0.739787,-0.2841 0.501528,-0.3324 0.263269,-0.3807 0.27662,-0.9051 3.687407,-14.6629 0.203705,-0.3928 c 0.279394,-0.4601 0.630137,-0.8644 1.05223,-1.2129 l 1.445443,-1.1642 c 1.409066,-0.9338 2.749513,-1.4784 4.021345,-1.6339 1.279904,-0.1951 2.805267,-0.072 4.576093,0.3701 3.295633,0.7719 5.806047,2.4594 7.531248,5.0625 1.962608,2.9614 2.891919,6.0233 2.787935,9.1857 -0.144551,3.4642 -1.566171,6.0906 -4.264865,7.8791 l -0.811857,0.4864 c -0.262705,0.1742 -0.557065,0.3005 -0.88308,0.3791 l -1.67035,0.5914 -1.300034,0.2944 -1.384185,0.5565 -1.30088,0.6043 -0.549433,0.4157 -0.525693,0.4515 -0.849372,1.13 c -0.255206,0.341 -0.387123,0.6347 -0.39575,0.881 l -0.431996,1.0597 c -0.349042,-0.2155 -0.634361,-0.4905 -0.855955,-0.8248 -0.506471,-0.7643 -0.702623,-1.6826 -0.588456,-2.755 0.04254,-1.025 0.457862,-1.7986 1.245968,-2.321 0.406007,-0.269 1.137879,-0.565 2.195619,-0.8879 -0.228787,-0.6046 -0.275001,-1.1411 -0.138641,-1.6095 0.04113,-0.5085 0.193603,-1.0564 0.45743,-1.6437 0.06416,-0.2144 0.195938,-0.4564 0.395327,-0.726 0.223283,-0.2855 0.454332,-0.5073 0.69315,-0.6656 0.191063,-0.1266 0.867116,-0.3512 2.028161,-0.6739 -0.422387,0.4518 -0.693569,0.8206 -0.813548,1.1063 -0.09609,0.2699 -0.002,0.7231 0.282357,1.3596 0.427346,0.6448 1.093934,0.9764 1.999767,0.9948 0.87418,-0.029 1.741151,-0.329 2.600913,-0.8988 l 0.537351,-0.3561 c 0.191057,-0.1266 0.326578,-0.2852 0.406563,-0.4757 0.988636,-1.2051 1.390105,-2.7258 1.204408,-4.5619 -0.201531,-1.86 -0.729637,-3.4348 -1.584321,-4.7244 -0.823032,-1.2419 -1.714387,-2.1979 -2.674067,-2.868 -0.951624,-0.7098 -2.126525,-1.1342 -3.524708,-1.2731 l -0.9772,-0.074 -1.204223,0.1278 -1.132998,0.2353 -0.918904,0.4028 c -0.429872,0.2849 -0.752424,0.5502 -0.967656,0.7959 l -0.346998,0.4878 -0.406986,0.6306 -0.299515,0.5594 -3.641617,15.3544 -0.192045,0.4881 -0.574444,0.8448 -0.58568,0.5943 -0.633163,0.5228 -0.811856,0.4865 c -0.119394,0.079 -0.405559,0.1141 -0.858494,0.1049 l -1.871516,0.055 -12.8610871,-0.035 6.8052615,-25.9065 -3.6324165,-5.4809 5.6601021,-3.7512 m 27.828565,1.3037 -1.124063,5.6945 11.579719,2.2248 -1.267356,5.7894 -5.682389,-1.1836 2.319772,-11.4364 -5.825683,-1.0887"
         style="fill:#ffffff;font-family:AlBattar;-inkscape-font-specification:AlBattar Bold"
         id="path4407" />
    </g>
    <g
       id="g4291"
       inkscape:export-filename="/home/habib/Bureau/Logos vectoriels/path5085.png"
       inkscape:export-xdpi="217"
       inkscape:export-ydpi="217">
      <path
         id="path4154"
         d="m 579.25,349.1875 -7.65625,7.71875 c -5.31093,5.35524 -6.38097,7.29921 -3.46875,6.28125 2.31599,-0.80955 5.88364,-2.92229 7.9375,-4.6875 2.51017,-2.15742 4.41662,-2.52088 5.84375,-1.09375 1.42713,1.42712 -3.44024,7.42888 -14.875,18.28125 -9.35604,8.87949 -18.0613,16.15625 -19.34375,16.15625 -1.28244,0 -0.71397,1.79532 1.28125,4 3.52771,3.8981 3.87508,3.73938 12.4375,-5.65625 4.84272,-5.31397 12.4801,-13.02808 16.96875,-17.15625 4.48866,-4.12817 9.40191,-7.98351 10.90625,-8.5625 1.91492,-0.73702 0.80712,-3.20427 -3.65625,-8.1875 l -6.375,-7.09375 z"
         style="font-size:medium;font-style:normal;font-variant:normal;font-weight:normal;font-stretch:normal;text-indent:0;text-align:start;text-decoration:none;line-height:normal;letter-spacing:normal;word-spacing:normal;text-transform:none;direction:ltr;block-progression:tb;writing-mode:lr-tb;text-anchor:start;color:#000000;fill:#ffffff;fill-opacity:0.96016666;fill-rule:nonzero;stroke:none;stroke-width:1;marker:none;visibility:visible;display:inline;overflow:visible;enable-background:accumulate;font-family:Adler;-inkscape-font-specification:Adler" />
      <path
         id="path4152"
         d="m 596.53125,368.8125 c -0.579,-0.0583 -3.90102,2.3304 -7.375,5.3125 -3.47398,2.98209 -4.89324,4.9817 -3.15625,4.46875 1.73699,-0.51296 5.30076,-1.59031 7.90625,-2.40625 6.89248,-2.15846 5.96079,2.1406 -2.0625,9.46875 -5.73805,5.2409 -7.01523,5.67774 -8.03125,2.78125 -1.0846,-3.0919 -1.57792,-3.04705 -5.125,0.5 -3.69642,3.69637 -3.71577,3.98869 -0.25,4.65625 2.82388,0.54392 1.63191,2.21658 -5,7.09375 -10.00003,7.3541 -13.15187,6.24981 -7.96875,-2.78125 l 3.625,-6.25 -6.28125,3.6875 C 555.39189,399.72722 554.91243,403.52005 561,410 l 4.46875,4.78125 8.5625,-6.75 c 4.70229,-3.70215 10.13266,-8.13801 12.0625,-9.875 9.32092,-8.38945 17.07,-14.48168 19.375,-15.25 1.69132,-0.56378 0.76997,-3.07244 -2.6875,-7.4375 -2.86239,-3.61377 -5.671,-6.59795 -6.25,-6.65625 z"
         style="font-size:medium;font-style:normal;font-variant:normal;font-weight:normal;font-stretch:normal;text-indent:0;text-align:start;text-decoration:none;line-height:normal;letter-spacing:normal;word-spacing:normal;text-transform:none;direction:ltr;block-progression:tb;writing-mode:lr-tb;text-anchor:start;color:#000000;fill:#ffffff;fill-opacity:0.96016666;fill-rule:nonzero;stroke:none;stroke-width:1;marker:none;visibility:visible;display:inline;overflow:visible;enable-background:accumulate;font-family:Adler;-inkscape-font-specification:Adler" />
      <path
         id="path4150"
         d="m 611.90625,391.1875 c -0.21702,0.0214 -0.38072,0.10225 -0.5,0.28125 -0.65246,0.97913 -6.38103,5.26381 -12.75,9.5 -6.36896,4.23618 -12.8987,8.80495 -14.5,10.15625 -1.60129,1.35129 -6.01485,3.50693 -9.8125,4.8125 l -6.90625,2.375 5.59375,8.78125 c 0.0293,0.0458 0.0646,0.0795 0.0937,0.125 5.93273,-5.38108 17.75678,-13.5502 20.5625,-13.5 0.25225,0.005 0.47486,0.0634 0.625,0.15625 3.83624,2.37092 2.49348,4.77501 -5.25,9.34375 -4.24285,2.50335 -9.59228,5.58922 -13.59375,7.40625 4.30744,5.73793 7.3834,6.73264 9.59375,3.15625 0.76828,-1.24311 8.16301,-6.56194 16.4375,-11.84375 8.27451,-5.28182 15.36401,-10.43547 15.75,-11.4375 0.38601,-1.00202 2.55227,-1.8125 4.8125,-1.8125 3.51321,0 3.75892,-0.65254 1.75,-4.40625 -0.68948,-1.2883 -1.52011,-2.59215 -2.375,-3.84375 -2.4038,2.33787 -5.93973,4.98806 -8.53125,6.375 -2.58158,1.38163 -5.97716,3.78964 -7.53125,5.34375 -3.12474,3.12473 -5.31585,3.55917 -7.4375,1.4375 -2.81839,-2.81837 -1.24424,-5.06036 5.96875,-8.5 4.05297,-1.93274 7.375,-4.27524 7.375,-5.21875 0,-0.60953 4.05634,-2.11679 7.40625,-3.09375 -2.76596,-3.32427 -5.52645,-5.71753 -6.78125,-5.59375 z"
         style="font-size:medium;font-style:normal;font-variant:normal;font-weight:normal;font-stretch:normal;text-indent:0;text-align:start;text-decoration:none;line-height:normal;letter-spacing:normal;word-spacing:normal;text-transform:none;direction:ltr;block-progression:tb;writing-mode:lr-tb;text-anchor:start;color:#000000;fill:#ffffff;fill-opacity:0.96016666;fill-rule:nonzero;stroke:none;stroke-width:1;marker:none;visibility:visible;display:inline;overflow:visible;enable-background:accumulate;font-family:Adler;-inkscape-font-specification:Adler" />
      <path
         id="path4148"
         d="m 629.65625,416.375 c -1.40949,0.008 -3.6356,1.68933 -8.46875,5.4375 -4.87256,3.77874 -9.32726,7.32725 -9.90625,7.90625 -0.579,0.57899 -6.49779,4.73525 -13.15625,9.21875 -6.65846,4.48349 -12.125,8.98303 -12.125,10 0,2.42856 7.03324,2.38237 9.59375,-0.0625 1.1001,-1.05039 5.32202,-2.92768 9.375,-4.15625 4.05298,-1.22859 13.64661,-4.43551 21.3125,-7.15625 12.94933,-4.5959 13.71108,-5.24135 11.03125,-8.90625 -2.35799,-3.22472 -2.875,-3.33497 -2.875,-0.625 0,3.75222 -7.76338,6.56275 -9.65625,3.5 -1.61553,-2.61397 3.03359,-8.125 6.84375,-8.125 2.32849,0 2.46332,-0.9006 0.6875,-4.21875 -0.96254,-1.79853 -1.55998,-2.8185 -2.65625,-2.8125 z"
         style="font-size:medium;font-style:normal;font-variant:normal;font-weight:normal;font-stretch:normal;text-indent:0;text-align:start;text-decoration:none;line-height:normal;letter-spacing:normal;word-spacing:normal;text-transform:none;direction:ltr;block-progression:tb;writing-mode:lr-tb;text-anchor:start;color:#000000;fill:#ffffff;fill-opacity:0.96016666;fill-rule:nonzero;stroke:none;stroke-width:1;marker:none;visibility:visible;display:inline;overflow:visible;enable-background:accumulate;font-family:Adler;-inkscape-font-specification:Adler" />
      <path
         id="path4146"
         d="m 619.21875,433.03125 c 0.46366,0.008 0.88749,0.0958 1.1875,0.28125 1.2591,0.77817 0.44311,2.01749 -1.90625,2.9375 -6.58287,2.57788 -8.57926,2.00335 -4.28125,-1.25 1.64782,-1.2473 3.60902,-1.99165 5,-1.96875 z"
         style="font-size:medium;font-style:normal;font-variant:normal;font-weight:normal;font-stretch:normal;text-indent:0;text-align:start;text-decoration:none;line-height:normal;letter-spacing:normal;word-spacing:normal;text-transform:none;direction:ltr;block-progression:tb;writing-mode:lr-tb;text-anchor:start;color:#000000;fill:#aa0000;fill-opacity:0.96016666;fill-rule:nonzero;stroke:none;stroke-width:1;marker:none;visibility:visible;display:inline;overflow:visible;enable-background:accumulate;font-family:Adler;-inkscape-font-specification:Adler" />
      <path
         id="path4144"
         d="m 636.46875,442.6875 c -3.87863,0.27368 -8.24798,3.40596 -17.6875,12.1875 -7.54619,7.02021 -15.30434,12.75 -17.25,12.75 -3.17191,0 -3.12749,-0.47081 0.46875,-4.6875 2.20598,-2.58656 5.45051,-5.921 7.1875,-7.40625 2.5818,-2.20759 1.9761,-2.2418 -3.1875,-0.15625 -9.28155,3.74884 -11.44798,5.8414 -10.1875,9.78125 0.62128,1.94183 1.47468,4.70876 1.90625,6.15625 0.93267,3.12822 3.18814,3.29202 9.75,0.71875 2.68088,-1.05133 10.3876,-7.21188 17.125,-13.6875 6.73737,-6.47565 13.10842,-11.78125 14.1875,-11.78125 3.59652,0 2.0195,6.23992 -2.25,8.90625 -6.75906,4.22112 -4.83546,5.634 2.90625,2.125 6.18535,-2.80356 6.92009,-3.95272 5.65625,-8.71875 -1.02693,-3.87256 -3.09469,-5.65955 -7.03125,-6.125 -0.27215,-0.0322 -0.54,-0.0555 -0.8125,-0.0625 -0.25547,-0.006 -0.52267,-0.0183 -0.78125,0 z"
         style="font-size:medium;font-style:normal;font-variant:normal;font-weight:normal;font-stretch:normal;text-indent:0;text-align:start;text-decoration:none;line-height:normal;letter-spacing:normal;word-spacing:normal;text-transform:none;direction:ltr;block-progression:tb;writing-mode:lr-tb;text-anchor:start;color:#000000;fill:#ffffff;fill-opacity:0.96016666;fill-rule:nonzero;stroke:none;stroke-width:1;marker:none;visibility:visible;display:inline;overflow:visible;enable-background:accumulate;font-family:Adler;-inkscape-font-specification:Adler" />
      <path
         id="path4142"
         d="m 650.59375,475.34375 c -3.27049,-0.12457 -10.05651,1.74849 -28.65625,6.78125 -8.60547,2.32848 -16.39578,3.74205 -17.34375,3.15625 -0.948,-0.58598 -1.75,0.89685 -1.75,3.28125 0,5.0485 0.0289,5.0381 7.78125,2 6.36673,-2.4953 37.41782,-10.3125 40.96875,-10.3125 5.02569,0 -0.0723,4.91835 -7.75,7.46875 C 627.97619,492.99005 609.02152,497.2494 607,496 c -2.30736,-1.426 -2.63437,1.2769 -0.75,6.1875 1.49148,3.8867 1.78855,3.96015 6.625,1.40625 3.70248,-1.9551 21.58847,-7.2823 33.15625,-9.875 11.50287,-2.578 15.14652,-9.57224 8.46875,-16.25 -1.24431,-1.2443 -1.94395,-2.0503 -3.90625,-2.125 z"
         style="font-size:medium;font-style:normal;font-variant:normal;font-weight:normal;font-stretch:normal;text-indent:0;text-align:start;text-decoration:none;line-height:normal;letter-spacing:normal;word-spacing:normal;text-transform:none;direction:ltr;block-progression:tb;writing-mode:lr-tb;text-anchor:start;color:#000000;fill:#ffffff;fill-opacity:0.96016666;fill-rule:nonzero;stroke:none;stroke-width:1;marker:none;visibility:visible;display:inline;overflow:visible;enable-background:accumulate;font-family:Adler;-inkscape-font-specification:Adler" />
      <path
         id="path4140"
         d="m 646.5,501.8125 c -12.52721,-0.005 -28.45747,3.5259 -32.8125,9.0625 -4.47533,5.6894 -3.87186,19.5339 0.6875,15.75 1.43435,-1.1904 11.77721,-3.53875 22.96875,-5.21875 11.19154,-1.6801 21.18334,-3.57885 22.21875,-4.21875 1.03542,-0.6399 2.35103,0.0144 2.9375,1.46875 0.58649,1.4547 1.14505,-0.18225 1.21875,-3.65625 0.0737,-3.4739 -0.64929,-7.54275 -1.59375,-9.03125 -1.8227,-2.8726 -8.10868,-4.15325 -15.625,-4.15625 z"
         style="font-size:medium;font-style:normal;font-variant:normal;font-weight:normal;font-stretch:normal;text-indent:0;text-align:start;text-decoration:none;line-height:normal;letter-spacing:normal;word-spacing:normal;text-transform:none;direction:ltr;block-progression:tb;writing-mode:lr-tb;text-anchor:start;color:#000000;fill:#ffffff;fill-opacity:0.96016666;fill-rule:nonzero;stroke:none;stroke-width:1;marker:none;visibility:visible;display:inline;overflow:visible;enable-background:accumulate;font-family:Adler;-inkscape-font-specification:Adler" />
      <path
         id="path4138"
         d="m 650.96875,508.125 c 4.01585,-0.0472 6.90333,0.359 7.53125,1.375 0.79763,1.2906 0.68683,2.3542 -0.25,2.375 -0.93684,0.021 -10.71781,1.4296 -21.71875,3.125 -23.98686,3.6969 -23.71594,3.6992 -22.125,1.125 2.2687,-3.6709 24.51496,-7.8583 36.5625,-8 z"
         style="font-size:medium;font-style:normal;font-variant:normal;font-weight:normal;font-stretch:normal;text-indent:0;text-align:start;text-decoration:none;line-height:normal;letter-spacing:normal;word-spacing:normal;text-transform:none;direction:ltr;block-progression:tb;writing-mode:lr-tb;text-anchor:start;color:#000000;fill:#550000;fill-opacity:0;fill-rule:nonzero;stroke:none;stroke-width:1;marker:none;visibility:visible;display:inline;overflow:visible;enable-background:accumulate;font-family:Adler;-inkscape-font-specification:Adler" />
      <path
         id="path4136"
         d="m 666.03125,537.09375 -10,0.0312 c -7.23318,0.023 -9.12792,0.61765 -6.84375,2.09375 1.73699,1.1225 5.26952,2.0445 7.875,2.0625 2.79293,0.019 4.75,1.3257 4.75,3.1875 0,1.8252 -2.01227,3.2225 -4.75,3.3125 -2.60548,0.086 -6.95337,0.58845 -9.6875,1.09375 -3.7723,0.6972 -4.67619,0.13225 -3.75,-2.28125 0.93968,-2.4487 -0.34515,-3.1279 -5.5625,-3 -3.72713,0.091 -5.60374,0.63465 -4.15625,1.21875 6.15551,2.4838 1.86907,5.12455 -7.375,4.53125 -11.81401,-0.7581 -12.9144,-3.866 -2.625,-7.375 l 7.375,-2.53125 -8.9375,-0.0937 -8.96875,-0.125 0,9.71875 c 0,8.1979 0.4966,9.3536 3.03125,7.25 2.0367,-1.6903 10.53284,-2.29065 26.3125,-1.84375 l 23.3125,0.65625 0,-8.9375 0,-8.96875 z"
         style="font-size:medium;font-style:normal;font-variant:normal;font-weight:normal;font-stretch:normal;text-indent:0;text-align:start;text-decoration:none;line-height:normal;letter-spacing:normal;word-spacing:normal;text-transform:none;direction:ltr;block-progression:tb;writing-mode:lr-tb;text-anchor:start;color:#000000;fill:#ffffff;fill-opacity:0.96016666;fill-rule:nonzero;stroke:none;stroke-width:1;marker:none;visibility:visible;display:inline;overflow:visible;enable-background:accumulate;font-family:Adler;-inkscape-font-specification:Adler" />
      <path
         id="path4134"
         d="m 615.15625,560.78125 c -0.16926,-0.007 -0.32683,0.002 -0.46875,0.0312 -0.94611,0.1942 -1.3125,1.16715 -1.3125,3.03125 0,3.249 1.74523,4.10805 8.96875,4.53125 4.92147,0.2884 9.87325,1.51595 11.03125,2.71875 1.44875,1.5048 -1.31514,1.96455 -8.90625,1.46875 -12.25148,-0.8001 -13.18816,0.1032 -13.1875,12.625 l 0,7.71875 10.34375,0.625 c 5.69069,0.3418 13.48887,1.5193 17.34375,2.625 3.85487,1.1054 10.04722,2 13.75,2 3.70278,0 7.31556,0.967 8.03125,2.125 2.10234,3.4015 3.15625,2.4277 3.15625,-2.875 0,-4.6303 -1.00401,-5.0443 -15.25,-6.3125 -19.44032,-1.7303 -35.57874,-5.72865 -34.625,-8.59375 0.40713,-1.223 2.10896,-2.39435 3.75,-2.59375 1.64102,-0.1994 13.14532,-1.5183 25.59375,-2.9375 12.44842,-1.4191 22.65625,-3.29305 22.65625,-4.15625 0,-1.421 -7.41726,-3.13725 -35.8125,-8.34375 -5.21096,-0.9554 -11.12976,-2.3884 -13.15625,-3.1875 -0.76804,-0.30285 -1.39846,-0.47917 -1.90625,-0.5 z"
         style="font-size:medium;font-style:normal;font-variant:normal;font-weight:normal;font-stretch:normal;text-indent:0;text-align:start;text-decoration:none;line-height:normal;letter-spacing:normal;word-spacing:normal;text-transform:none;direction:ltr;block-progression:tb;writing-mode:lr-tb;text-anchor:start;color:#000000;fill:#ffffff;fill-opacity:0.96016666;fill-rule:nonzero;stroke:none;stroke-width:1;marker:none;visibility:visible;display:inline;overflow:visible;enable-background:accumulate;font-family:Adler;-inkscape-font-specification:Adler" />
      <path
         id="path4132"
         d="m 611.8125,596.9375 c -2.28079,0.0555 -2.97194,1.14025 -3.53125,3.90625 -0.52042,2.5737 -1.50036,7.23025 -2.15625,10.34375 -1.38003,6.5508 -0.86749,6.98965 10.40625,8.90625 l 8.4375,1.4375 L 618.125,617.25 c -7.97558,-4.9915 -8.84106,-7.3629 -2.125,-5.875 2.60549,0.5772 12.32981,2.73905 21.59375,4.78125 9.26395,2.0422 17.7501,4.49505 18.84375,5.46875 2.12566,1.8925 5.29015,-1.71515 5.34375,-6.09375 0.019,-1.5149 -2.59973,-2.625 -6.15625,-2.625 -7.98644,0 -35.31841,-5.7511 -39.8125,-8.375 -2.70524,-1.5797 -1.88506,-2.04375 3.78125,-2.09375 8.56972,-0.076 6.3837,-3.1422 -3.5625,-5 -1.83158,-0.3421 -3.18203,-0.525 -4.21875,-0.5 z"
         style="font-size:medium;font-style:normal;font-variant:normal;font-weight:normal;font-stretch:normal;text-indent:0;text-align:start;text-decoration:none;line-height:normal;letter-spacing:normal;word-spacing:normal;text-transform:none;direction:ltr;block-progression:tb;writing-mode:lr-tb;text-anchor:start;color:#000000;fill:#ffffff;fill-opacity:0.96016666;fill-rule:nonzero;stroke:none;stroke-width:1;marker:none;visibility:visible;display:inline;overflow:visible;enable-background:accumulate;font-family:Adler;-inkscape-font-specification:Adler" />
      <path
         id="path4130"
         d="m 610.71875,622.34375 c -1.25129,0.0558 -2.40701,0.4273 -3.59375,1.0625 -7.28921,3.9011 -11.28632,14.75 -5.4375,14.75 6.02579,0 42.27087,13.02425 44.28125,15.90625 2.35875,3.3815 4.2343,1.93155 6.28125,-4.84375 1.2419,-4.1105 0.64705,-4.76735 -4.5,-4.90625 -8.0449,-0.2173 -21.00433,-5.04035 -18.1875,-6.78125 1.24889,-0.7719 6.80046,-0.0429 12.34375,1.625 10.5195,3.1658 13.59375,2.7493 13.59375,-1.875 0,-2.7431 -12.25116,-5.83705 -23.6875,-5.96875 -3.18448,-0.037 -5.8125,-0.7652 -5.8125,-1.625 0,-0.8599 -3.30423,-3.1457 -7.34375,-5.0625 -3.46944,-1.6464 -5.85201,-2.37425 -7.9375,-2.28125 z"
         style="font-size:medium;font-style:normal;font-variant:normal;font-weight:normal;font-stretch:normal;text-indent:0;text-align:start;text-decoration:none;line-height:normal;letter-spacing:normal;word-spacing:normal;text-transform:none;direction:ltr;block-progression:tb;writing-mode:lr-tb;text-anchor:start;color:#000000;fill:#ffffff;fill-opacity:0.96016666;fill-rule:nonzero;stroke:none;stroke-width:1;marker:none;visibility:visible;display:inline;overflow:visible;enable-background:accumulate;font-family:Adler;-inkscape-font-specification:Adler" />
      <path
         id="path4128"
         d="m 607.9375,628.78125 c 4.29742,-0.0169 14.64103,4.2167 15.46875,6.75 1.01853,3.117 -4.98966,3.58175 -6.875,0.53125 -0.71568,-1.158 -3.0707,-2.09375 -5.25,-2.09375 -4.24003,0 -7.45362,-3.29975 -4.78125,-4.90625 0.32175,-0.1932 0.82358,-0.28125 1.4375,-0.28125 z"
         style="font-size:medium;font-style:normal;font-variant:normal;font-weight:normal;font-stretch:normal;text-indent:0;text-align:start;text-decoration:none;line-height:normal;letter-spacing:normal;word-spacing:normal;text-transform:none;direction:ltr;block-progression:tb;writing-mode:lr-tb;text-anchor:start;color:#000000;fill:#aa0000;fill-opacity:0.94117647;fill-rule:nonzero;stroke:none;stroke-width:1;marker:none;visibility:visible;display:inline;overflow:visible;enable-background:accumulate;font-family:Adler;-inkscape-font-specification:Adler" />
      <path
         id="path4126"
         d="m 599.0625,644.78125 c -1.54396,0.14099 -2.51891,0.894 -3.84375,2.21875 -7.389,7.3891 3.31421,17.474 26.59375,25.0625 13.51241,4.4047 13.38558,4.38155 17.71875,2.71875 1.83171,-0.7029 3.3125,-3.53365 3.3125,-6.28125 0,-5.8465 -14.9949,-15.46905 -33.1875,-21.28125 -5.05825,-1.6159 -7.91105,-2.4075 -9.875,-2.4375 -0.24549,-0.004 -0.49818,-0.0201 -0.71875,0 z"
         style="font-size:medium;font-style:normal;font-variant:normal;font-weight:normal;font-stretch:normal;text-indent:0;text-align:start;text-decoration:none;line-height:normal;letter-spacing:normal;word-spacing:normal;text-transform:none;direction:ltr;block-progression:tb;writing-mode:lr-tb;text-anchor:start;color:#000000;fill:#ffffff;fill-opacity:0.96016666;fill-rule:nonzero;stroke:none;stroke-width:1;marker:none;visibility:visible;display:inline;overflow:visible;enable-background:accumulate;font-family:Adler;-inkscape-font-specification:Adler" />
      <path
         id="path4124"
         d="m 599.9375,650.8125 c 4.47086,0 32.72303,12.3713 36.53125,16 5.58571,5.3225 -6.13427,3.3689 -20.59375,-3.4375 -7.30705,-3.4395 -14.06672,-6.25 -15.03125,-6.25 -0.96452,0 -2.30219,-1.41915 -2.96875,-3.15625 -0.75621,-1.9707 0.0258,-3.15625 2.0625,-3.15625 z"
         style="font-size:medium;font-style:normal;font-variant:normal;font-weight:normal;font-stretch:normal;text-indent:0;text-align:start;text-decoration:none;line-height:normal;letter-spacing:normal;word-spacing:normal;text-transform:none;direction:ltr;block-progression:tb;writing-mode:lr-tb;text-anchor:start;color:#000000;fill:#aa0000;fill-opacity:0.94117647;fill-rule:nonzero;stroke:none;stroke-width:1;marker:none;visibility:visible;display:inline;overflow:visible;enable-background:accumulate;font-family:Adler;-inkscape-font-specification:Adler" />
      <path
         id="path4122"
         d="m 590.21875,664.40625 c -3.62488,0.22277 -6.18672,3.19278 -9.59375,9.78125 -2.73036,5.28 -2.67847,5.80905 0.65625,5.59375 4.90023,-0.3165 42.625,21.1439 42.625,24.25 0,1.3418 1.51989,0.2735 3.375,-2.375 1.8551,-2.6486 3.03261,-5.02085 2.625,-5.28125 -0.40761,-0.2603 -5.66017,-2.7043 -11.6875,-5.4375 -9.047,-4.1027 -10.63973,-5.58415 -9.0625,-8.53125 2.5775,-4.8162 -2.33784,-11.5782 -11.65625,-16 -2.59729,-1.2326 -4.70162,-1.933 -6.53125,-2 -0.25157,-0.009 -0.50834,-0.0149 -0.75,0 z"
         style="font-size:medium;font-style:normal;font-variant:normal;font-weight:normal;font-stretch:normal;text-indent:0;text-align:start;text-decoration:none;line-height:normal;letter-spacing:normal;word-spacing:normal;text-transform:none;direction:ltr;block-progression:tb;writing-mode:lr-tb;text-anchor:start;color:#000000;fill:#ffffff;fill-opacity:0.96016666;fill-rule:nonzero;stroke:none;stroke-width:1;marker:none;visibility:visible;display:inline;overflow:visible;enable-background:accumulate;font-family:Adler;-inkscape-font-specification:Adler" />
      <path
         id="path4120"
         d="m 588.65625,669.75 c 3.87924,0.013 16.3125,8.0181 16.3125,10.5 0,3.1022 -2.20251,2.60435 -11.0625,-2.53125 -7.93213,-4.5976 -10.14843,-7.98375 -5.25,-7.96875 z"
         style="font-size:medium;font-style:normal;font-variant:normal;font-weight:normal;font-stretch:normal;text-indent:0;text-align:start;text-decoration:none;line-height:normal;letter-spacing:normal;word-spacing:normal;text-transform:none;direction:ltr;block-progression:tb;writing-mode:lr-tb;text-anchor:start;color:#000000;fill:#aa0000;fill-opacity:0.94117647;fill-rule:nonzero;stroke:none;stroke-width:1;marker:none;visibility:visible;display:inline;overflow:visible;enable-background:accumulate;font-family:Adler;-inkscape-font-specification:Adler" />
      <path
         id="path4118"
         d="m 577.6875,682.28125 -4.25,4.28125 c -2.34085,2.3408 -4.28125,5.05285 -4.28125,6.03125 0,4.2682 8.86271,9.0116 23.96875,12.875 17.69452,4.5255 20.25,5.6299 20.25,8.625 0,2.6425 -7.66491,2.50265 -12.75,-0.21875 -6.58729,-3.5255 -4.68377,-0.6982 2.75,4.0625 8.20118,5.2522 7.50378,5.1525 11.21875,1.4375 4.44933,-4.4493 3.63338,-11.22495 -1.75,-14.71875 -2.60549,-1.6911 -11.07772,-4.1593 -18.84375,-5.5 -7.76603,-1.3408 -15.34583,-3.9357 -16.84375,-5.75 -2.42121,-2.9325 -1.70104,-3.1519 6.46875,-2.0625 l 9.1875,1.21875 -7.5625,-5.125 -7.5625,-5.15625 z"
         style="font-size:medium;font-style:normal;font-variant:normal;font-weight:normal;font-stretch:normal;text-indent:0;text-align:start;text-decoration:none;line-height:normal;letter-spacing:normal;word-spacing:normal;text-transform:none;direction:ltr;block-progression:tb;writing-mode:lr-tb;text-anchor:start;color:#000000;fill:#ffffff;fill-opacity:0.96016666;fill-rule:nonzero;stroke:none;stroke-width:1;marker:none;visibility:visible;display:inline;overflow:visible;enable-background:accumulate;font-family:Adler;-inkscape-font-specification:Adler" />
      <path
         id="path4116"
         d="m 560.75,703.5 c -0.57899,-0.037 -3.70364,3.2596 -6.9375,7.3125 -3.23385,4.053 -4.83057,7.375 -3.5625,7.375 3.35319,0 30.57017,23.3693 33.78125,29 3.23478,5.6723 5.57585,5.23375 11,-2.03125 4.55222,-6.0972 2.707,-12.42775 -4.84375,-16.46875 -5.25622,-2.813 -5.26237,-1.88485 0.0312,4.21875 4.79039,5.5234 5.20179,7.55705 1.90625,9.59375 -1.27173,0.786 -5.77126,-2.10995 -10,-6.46875 -7.06742,-7.2848 -7.27582,-7.82475 -2.4375,-6.40625 5.19068,1.5218 5.18893,1.46825 -0.84375,-3.90625 -7.08266,-6.3099 -7.87304,-6.59225 -6.21875,-2.28125 1.89321,4.9336 -1.76747,3.62395 -9.5,-3.40625 -4.99493,-4.5412 -6.42064,-7.07935 -4.84375,-8.65625 1.57692,-1.5769 3.8943,-1.16105 7.8125,1.40625 3.05492,2.0016 6.04411,3.1121 6.65625,2.5 1.04849,-1.0486 -9.73839,-11.63845 -12,-11.78125 z"
         style="font-size:medium;font-style:normal;font-variant:normal;font-weight:normal;font-stretch:normal;text-indent:0;text-align:start;text-decoration:none;line-height:normal;letter-spacing:normal;word-spacing:normal;text-transform:none;direction:ltr;block-progression:tb;writing-mode:lr-tb;text-anchor:start;color:#000000;fill:#ffffff;fill-opacity:0.96016666;fill-rule:nonzero;stroke:none;stroke-width:1;marker:none;visibility:visible;display:inline;overflow:visible;enable-background:accumulate;font-family:Adler;-inkscape-font-specification:Adler" />
      <path
         sodipodi:nodetypes="cssssssssssssssssc"
         id="path4114"
         d="m 541.71875,722.375 c -1.12166,0 -2.03125,0.92625 -2.03125,2.03125 0,1.105 -4.40376,5.36275 -9.78125,9.46875 -7.09843,5.42 -8.67609,7.4785 -5.78125,7.5625 3.69039,0.1077 28.71443,29.1216 31.59375,36.625 0.94993,2.4755 1.97736,2.5868 5.21875,0.5625 2.21301,-1.3821 4.03125,-3.2456 4.03125,-4.125 0,-0.8794 -1.23144,-1.59375 -2.71875,-1.59375 -1.48733,0 -4.287,-2.59675 -6.21875,-5.78125 -1.93174,-3.1844 -6.18323,-8.61995 -9.46875,-12.09375 -11.75426,-12.4285 -17.6314,-24.14531 -11.94892,-24.14531 3.07776,0 31.9163,31.34836 33.63642,36.42656 1.20133,3.5466 1.85435,3.38025 7.4375,-1.96875 7.32138,-7.0144 7.48161,-8.6036 1.53125,-14.9375 -6.36144,-6.7715 -8.32011,-6.06385 -4.5,1.59375 1.7691,3.5462 2.55392,7.0787 1.75,7.875 -2.12081,2.1008 -32.87461,-31.71555 -31.6875,-34.84375 0.54931,-1.4475 0.0592,-2.65625 -1.0625,-2.65625 z"
         style="font-size:medium;font-style:normal;font-variant:normal;font-weight:normal;font-stretch:normal;text-indent:0;text-align:start;text-decoration:none;line-height:normal;letter-spacing:normal;word-spacing:normal;text-transform:none;direction:ltr;block-progression:tb;writing-mode:lr-tb;text-anchor:start;color:#000000;fill:#ffffff;fill-opacity:0.96016666;fill-rule:nonzero;stroke:none;stroke-width:1;marker:none;visibility:visible;display:inline;overflow:visible;enable-background:accumulate;font-family:Adler;-inkscape-font-specification:Adler" />
      <path
         id="path4112"
         d="m 515.375,746.5625 c -3.06682,0.19943 -5.15625,2.30334 -5.15625,6.375 0,12.156 21.41231,39.7669 29.90625,38.5625 3.14541,-0.446 5.06131,-2.3481 5.5,-5.4375 0.65593,-4.6193 -8.42989,-22.3224 -16.03125,-31.25 -4.56418,-5.3605 -9.73456,-8.187 -13.59375,-8.25 -0.21282,-0.003 -0.42055,-0.0133 -0.625,0 z"
         style="font-size:medium;font-style:normal;font-variant:normal;font-weight:normal;font-stretch:normal;text-indent:0;text-align:start;text-decoration:none;line-height:normal;letter-spacing:normal;word-spacing:normal;text-transform:none;direction:ltr;block-progression:tb;writing-mode:lr-tb;text-anchor:start;color:#000000;fill:#ffffff;fill-opacity:0.96016666;fill-rule:nonzero;stroke:none;stroke-width:1;marker:none;visibility:visible;display:inline;overflow:visible;enable-background:accumulate;font-family:Adler;-inkscape-font-specification:Adler" />
      <path
         id="path4110"
         d="m 514.78125,750.96875 c 0.0602,-0.0186 0.14312,-0.004 0.21875,0 2.92436,0.136 18.18712,17.77245 21.875,25.84375 1.93416,4.2332 3.89114,8.3815 4.34375,9.25 1.83834,3.5275 -3.13781,1.26235 -6.9375,-3.15625 C 527.1493,774.61245 514.4133,754.4048 514.5,751.5 c 0.009,-0.29287 0.10081,-0.47531 0.28125,-0.53125 z"
         style="font-size:medium;font-style:normal;font-variant:normal;font-weight:normal;font-stretch:normal;text-indent:0;text-align:start;text-decoration:none;line-height:normal;letter-spacing:normal;word-spacing:normal;text-transform:none;direction:ltr;block-progression:tb;writing-mode:lr-tb;text-anchor:start;color:#000000;fill:#aa0000;fill-opacity:0.94117647;fill-rule:nonzero;stroke:none;stroke-width:1;marker:none;visibility:visible;display:inline;overflow:visible;enable-background:accumulate;font-family:Adler;-inkscape-font-specification:Adler" />
      <path
         id="path4108"
         d="m 502.875,753.96875 c -0.86999,0 -16.17146,8.2251 -17.4375,9.375 -0.75097,0.6822 5.6802,15.875 6.71875,15.875 0.45328,0 0.31561,-4.016 -0.3125,-8.9375 -1.36225,-10.6733 -0.77894,-10.2821 7.34375,4.75 3.44151,6.3689 8.27711,15.15355 10.75,19.53125 2.4729,4.3777 4.5,9.3231 4.5,11 0,2.5154 0.94442,2.6096 5.4375,0.5625 4.56657,-2.0807 4.95306,-2.8421 2.34375,-4.75 -1.71154,-1.2515 -6.54524,-8.6956 -10.71875,-16.5625 -4.17353,-7.867 -9.02087,-16.3617 -10.78125,-18.875 -4.99354,-7.1293 0.64557,-7.2374 6.65625,-0.125 l 5.125,6.0625 -4.34375,-8.96875 c -2.38848,-4.9215 -4.76099,-8.9375 -5.28125,-8.9375 z"
         style="font-size:medium;font-style:normal;font-variant:normal;font-weight:normal;font-stretch:normal;text-indent:0;text-align:start;text-decoration:none;line-height:normal;letter-spacing:normal;word-spacing:normal;text-transform:none;direction:ltr;block-progression:tb;writing-mode:lr-tb;text-anchor:start;color:#000000;fill:#ffffff;fill-opacity:0.96016666;fill-rule:nonzero;stroke:none;stroke-width:1;marker:none;visibility:visible;display:inline;overflow:visible;enable-background:accumulate;font-family:Adler;-inkscape-font-specification:Adler" />
      <path
         id="path4101"
         d="m 483.09375,764.59375 -8,3.34375 c -10.32603,4.2799 -10.01122,3.6989 -5.71875,10.25 4.67244,7.131 17.6875,36.96155 17.6875,40.53125 0,2.0689 1.77361,1.9475 7.78125,-0.5625 4.28298,-1.7897 8.18938,-3.65805 8.6875,-4.15625 0.49815,-0.4981 -1.05311,-4.9722 -3.4375,-9.9375 l -4.3125,-9.03125 0.375,9.25 c 0.51112,12.4546 -3.15348,12.9587 -7.5625,1.0625 -2.93425,-7.9169 -3.0579,-9.4962 -0.625,-8.5625 2.45825,0.9432 2.58578,0.016 0.75,-5.25 -1.59173,-4.5662 -2.7134,-5.6057 -3.9375,-3.625 -2.12484,3.4381 -2.77928,2.7456 -6.84375,-7.0625 -4.16949,-10.0615 -0.85819,-12.4847 6.0625,-4.4375 5.89676,6.8565 6.42311,5.7244 2.125,-4.5625 l -3.03125,-7.25 z"
         style="font-size:medium;font-style:normal;font-variant:normal;font-weight:normal;font-stretch:normal;text-indent:0;text-align:start;text-decoration:none;line-height:normal;letter-spacing:normal;word-spacing:normal;text-transform:none;direction:ltr;block-progression:tb;writing-mode:lr-tb;text-anchor:start;color:#000000;fill:#ffffff;fill-opacity:0.96016666;fill-rule:nonzero;stroke:none;stroke-width:1;marker:none;visibility:visible;display:inline;overflow:visible;enable-background:accumulate;font-family:Adler;-inkscape-font-specification:Adler" />
      <path
         sodipodi:nodetypes="csssssc"
         id="path4168"
         d="m 652.60478,510.34469 c -0.19419,1.22773 0.63697,3.56176 -1.43621,4.80519 -3.16472,1.89811 -10.24177,2.59864 -15.6452,3.4938 -4.82869,0.79993 -12.07826,2.17398 -14.86115,1.50275 -2.37128,-0.57197 -0.66932,-3.00947 -0.4436,-4.43653 0.4906,-3.10183 8.13822,-6.81741 17.0814,-8.29897 8.9432,-1.48156 15.79537,-0.16807 15.30476,2.93376 z"
         style="fill:#aa0000;fill-opacity:0.94117647;fill-rule:nonzero;stroke:none" />
    </g>
  </g>
  <g
     inkscape:label="Etoile"
     inkscape:groupmode="layer"
     id="layer1"
     style="display:inline"
     transform="translate(-68.102472,-187.37772)">
    <path
       sodipodi:type="arc"
       style="fill:#d40000;fill-opacity:1;fill-rule:nonzero;stroke:#ffffff;stroke-width:7.31658268;stroke-miterlimit:4;stroke-opacity:1;stroke-dasharray:none"
       sodipodi:cx="408.10162"
       sodipodi:cy="512.94073"
       sodipodi:rx="210.11172"
       sodipodi:ry="210.11172"
       d="M 618.21335,512.94073 A 210.11172,210.11172 0 0 1 408.10162,723.05246 210.11172,210.11172 0 0 1 197.9899,512.94073 210.11172,210.11172 0 0 1 408.10162,302.82901 210.11172,210.11172 0 0 1 618.21335,512.94073 Z"
       transform="matrix(0.95673077,0,0,0.95673077,-8.1576723,69.616022)"
       inkscape:export-filename="/home/habib/Bureau/Logos vectoriels/path5085.png"
       inkscape:export-xdpi="217"
       inkscape:export-ydpi="217"
       id="path79" />
    <path
       sodipodi:type="star"
       style="fill:#ffffff;fill-opacity:1;fill-rule:nonzero;stroke:none"
       id="path3059"
       sodipodi:sides="5"
       sodipodi:cx="-604.07123"
       sodipodi:cy="324.04221"
       sodipodi:r1="308.72427"
       sodipodi:r2="120.67124"
       sodipodi:arg1="0.79575648"
       sodipodi:arg2="1.4247201"
       inkscape:flatsided="false"
       inkscape:rounded="0"
       inkscape:randomized="0"
       d="m -388.0431,544.59271 -198.46355,-101.16443 -160.56421,154.22274 34.88448,-220.01158 -196.29161,-105.0482 220.02335,-34.8102 39.24932,-219.146089 101.09742,198.497689 220.54903,-30.39154 -157.5417,157.48853 z"
       transform="matrix(0.60944416,0.09211939,-0.09211939,0.60944416,780.28396,418.52325)"
       inkscape:export-filename="/home/habib/Bureau/Logos vectoriels/path5085.png"
       inkscape:export-xdpi="217"
       inkscape:export-ydpi="217" />
  </g>
  <g
     inkscape:groupmode="layer"
     id="layer4"
     inkscape:label="3D"
     style="display:inline"
     transform="translate(-68.102472,-187.37772)" />
  <g
     inkscape:groupmode="layer"
     id="layer5"
     inkscape:label="PremierPlan"
     transform="translate(-68.102472,-187.37772)"
     style="display:inline">
    <path
       style="fill:#d40000;display:inline"
       d="m 142.90857,187.37772 0,65 0,65.0312 5.8125,2.4375 94.3393,52.8304 c 0,0 52.8705,-35.8973 131.442,-41.6116 78.5714,-5.7143 142.6606,43.2232 142.6606,43.2232 l 99.4643,-56.0045 0,-65.4687 0,-65.4375 -236.8437,0 -236.875,0 z m 6.3125,4.2187 231.625,0 231.5937,0 0,60.75 0,60.7813 -25.8125,14.6875 c -14.1854,8.0707 -35.2638,20.1426 -46.8437,26.8437 -11.58,6.7012 -21.5328,12.4783 -22.125,12.8125 -0.5922,0.3343 -3.4307,-1.1261 -6.3125,-3.2187 -2.8818,-2.0926 -13.2821,-8.0202 -23.125,-13.1875 -41.5095,-21.7917 -88.8528,-30.4143 -136.5,-24.875 -34.0276,3.9559 -65.0397,15.139 -102.4687,36.9687 l -6.3125,3.6875 -29.0938,-16.5625 c -15.9883,-9.1173 -33.503,-19.1452 -38.9375,-22.2812 -5.4345,-3.136 -13.4388,-7.3788 -17.7812,-9.4375 l -7.9063,-3.75 0,-61.625 0,-61.5938 z m 4.2188,6.3125 0,55.6875 c 0,55.3433 0.043,55.7318 4.75,59.125 10.4204,7.5116 82.7381,47.3125 85.9687,47.3125 1.9014,0 5.7071,-1.7982 8.4688,-3.9687 8.8825,-6.9813 34.0086,-18.6482 52.4062,-24.3438 9.8429,-3.0471 20.7448,-6.511 24.2188,-7.7187 9.1082,-3.1664 69.1657,-4.797 85.2812,-2.3125 15.4389,2.3802 39.9738,8.5974 43.1562,10.9375 1.158,0.8515 4.9323,2.2097 8.4063,3.0312 7.5761,1.7916 30.8416,13.4177 41.9687,20.9688 4.401,2.9866 8.6126,5.1191 9.3438,4.7187 31.4,-17.1944 49.9831,-27.6365 50.8125,-28.5625 1.1269,-1.2581 13.2125,-8.0238 25.25,-14.125 13.1406,-6.6603 12.6562,-4.0647 12.6562,-64.8125 l 0,-55.9375 -226.3437,0 -226.3437,0 z m 213.7187,10.5313 c 32.2003,0 45.25,6.185 45.25,21.4062 l 0,8.0625 -17.9062,0 c -17.1459,0 -17.8754,-0.2113 -17.9063,-4.75 -0.048,-7.1175 -3.0232,-10.4483 -8.625,-9.6562 -4.1849,0.5917 -5.0312,1.9405 -5.0312,7.9687 0,7.8158 -0.2899,7.6362 32.9687,19.875 14.5293,5.3467 20.7187,12.4232 20.7187,23.75 0,11.4098 -4.8789,19.2562 -14.4374,23.25 -7.3687,3.0789 -39.1379,5.361 -48.7188,3.5 -20.4164,-3.9656 -29.4647,-11.4778 -29.4687,-24.4687 l -0.031,-7.9063 18.9687,0 18.9375,0 0,8.4375 c 0,8.2485 0.1581,8.4063 7.5,8.4063 7.3672,0 7.486,-0.1318 6.8438,-7.8438 -0.6519,-7.8278 -0.6872,-7.8581 -20.5938,-15.625 -10.9754,-4.2822 -22.8442,-10.0886 -26.3437,-12.9062 -5.5672,-4.4823 -6.3438,-6.4574 -6.3438,-15.7813 0,-19.3689 10.9096,-25.7187 44.2188,-25.7187 l -10e-5,0 z m 169.6562,0.1562 c 2.0157,0.024 4.1274,0.082 6.3125,0.1563 20.1502,0.6897 23.1529,1.3282 31.0625,6.5625 7.8431,5.1903 8.75,6.6752 8.75,14.1875 l 0,8.4062 -18.8125,0 -18.8125,0 -0.6562,-6.8437 c -0.5515,-5.7193 -1.5068,-6.8438 -5.9063,-6.8438 -4.3943,0 -5.3886,1.1261 -5.9375,6.8125 -0.6184,6.408 0.047,7.1123 10.9375,12.0938 6.3669,2.9122 12.8075,5.3125 14.3125,5.3125 1.5051,0 7.7091,2.5057 13.8125,5.5937 9.148,4.6285 11.468,6.9371 13.125,13.1563 3.8964,14.6244 -1.5796,26.5372 -14.6875,32 -8.5343,3.5567 -39.784,4.1961 -53.5312,1.0937 -15.51,-3.5001 -22.25,-10.3275 -22.25,-22.5 l 0,-8.3125 18.9375,0 18.9687,0 0,8.4375 c 0,7.9733 0.3325,8.4063 6.375,8.4063 7.0169,0 9.4981,-3.5685 7.625,-11.0313 -0.8731,-3.4786 -4.6975,-6.0614 -14.4375,-9.75 -35.4449,-13.4232 -41.3068,-18.9286 -38.9375,-36.5937 2.0331,-15.1574 13.5157,-20.6986 43.75,-20.3438 z m -364.4062,1.9375 34.8438,0 34.875,0 -0.6563,8.9375 -0.6562,8.9688 -13.1563,0.625 -13.1562,0.625 0,8.3125 0,8.3125 13.6875,0 13.6875,0 0,9.5 0,9.4687 -13.8125,0 -13.8125,0 0.6562,8.9375 0.6563,8.9375 13.25,0.6563 13.2812,0.625 -0.625,8.8437 -0.6562,8.8438 -32.75,0.5625 c -18.0172,0.3178 -33.4185,-0.075 -34.2188,-0.875 -0.8003,-0.8003 -1.4375,-21.6712 -1.4375,-46.375 l 0,-44.9063 z"
       id="path4319"
       sodipodi:nodetypes="cccccsccccccccccccssssscccsccccccssssssssssssccccccccssssssscccccssssscccscccccsssssssscccccsssscccccccccccccccccccccccsccc"
       inkscape:export-filename="/home/habib/Bureau/Logos vectoriels/path5085.png"
       inkscape:export-xdpi="217"
       inkscape:export-ydpi="217" />
    <path
       style="fill:#ffffff;fill-opacity:0.94117647;fill-rule:nonzero;stroke:none;display:inline"
       d="m 472.02277,289.36492 -16.3699,-11.8662 -16.5784,11.5731 6.2268,-19.2356 -16.1297,-12.1907 20.2183,-0.022 6.6097,-19.1073 6.2688,19.2219 20.2147,0.3817 -16.3439,11.9019 5.8836,19.3432 z"
       id="path4332"
       inkscape:export-filename="/home/habib/Bureau/Logos vectoriels/path5085.png"
       inkscape:export-xdpi="217"
       inkscape:export-ydpi="217" />
    <path
       style="fill:#ffffff;fill-opacity:0.94117647;fill-rule:nonzero;stroke:none;display:inline"
       d="m 304.33747,289.36492 -16.3699,-11.8662 -16.5784,11.5731 6.2268,-19.2356 -16.1297,-12.1907 20.2183,-0.022 6.6097,-19.1073 6.2688,19.2219 20.2147,0.3817 -16.3439,11.9019 5.8836,19.3432 z"
       id="path4334"
       inkscape:export-filename="/home/habib/Bureau/Logos vectoriels/path5085.png"
       inkscape:export-xdpi="217"
       inkscape:export-ydpi="217" />
    <path
       style="fill:#ffffff;fill-opacity:0.94117647;fill-rule:nonzero;stroke:none;display:inline"
       d="m 175.22111,301.73004 c -1.71913,-0.47992 -1.97414,-5.6258 -2.51697,-50.79004 l -0.48291,-40.17857 34.79305,0 34.79305,0 -0.42887,6.25 c -0.70964,10.34144 -0.80455,10.66035 -3.32259,11.16396 -1.21875,0.24375 -4.21564,0.44318 -6.65976,0.44318 -2.44411,0 -7.38607,0.20885 -10.98214,0.46411 l -6.5383,0.4641 0,8.46447 0,8.46447 13.92857,0 13.92857,0 0,9.28571 0,9.28571 -14.00106,0 -14.00107,0 0.45026,5.17858 c 0.24765,2.84821 0.63326,7.02678 0.85692,9.28571 l 0.40665,4.10714 3.67986,0.062 c 7.44554,0.1254 21.82142,1.05577 22.20255,1.4369 0.54866,0.54866 -0.67994,15.53919 -1.32664,16.18669 -0.56186,0.56256 -62.82336,0.97191 -64.77917,0.42591 l 0,-3e-5 z"
       id="path4344"
       inkscape:export-filename="/home/habib/Bureau/Logos vectoriels/path5085.png"
       inkscape:export-xdpi="217"
       inkscape:export-ydpi="217" />
    <path
       style="fill:#ffffff;fill-opacity:0.94117647;fill-rule:nonzero;stroke:none;display:inline"
       d="m 353.44184,301.46551 c -10.69808,-1.94425 -21.78765,-7.22745 -25.18483,-11.99836 -2.54037,-3.56761 -3.66706,-7.80624 -3.66706,-13.79552 l 0,-5.62449 18.57143,0 18.57143,0 0,6.83268 c 0,9.45021 0.11292,9.5959 7.43767,9.5959 7.58908,0 7.92402,-0.34389 7.31798,-7.51332 -0.24791,-2.93288 -0.85686,-6.00528 -1.3532,-6.82756 -1.13462,-1.87969 -4.73884,-3.7196 -17.33102,-8.8473 -16.55737,-6.74237 -25.69075,-11.43839 -29.58639,-15.21213 -4.44228,-4.30327 -5.39976,-7.51875 -4.73021,-15.88541 0.80972,-10.11816 4.10868,-15.41197 11.73796,-18.83579 8.17974,-3.67085 27.04572,-5.42952 43.74776,-4.07812 16.60518,1.34356 26.07879,4.7413 30.33725,10.88055 1.90038,2.7397 2.08472,3.57421 2.31159,10.46458 l 0.24653,7.48747 -16.31796,-0.52034 c -12.74583,-0.40643 -16.57283,-0.74878 -17.48226,-1.56392 -0.70415,-0.63114 -1.29215,-2.58528 -1.48779,-4.9445 -0.54037,-6.51609 -5.10316,-9.5804 -10.75135,-7.22044 -2.27571,0.95086 -2.61861,1.44207 -3.05964,4.38312 -0.63585,4.2401 -0.0148,8.02798 1.61112,9.82747 1.93323,2.13953 6.85245,4.41591 21.89057,10.12991 7.52163,2.85797 15.07371,5.91202 16.7824,6.78676 4.19128,2.14568 9.18782,6.86289 11.00039,10.38543 1.84367,3.58297 2.50616,12.47143 1.29175,17.331 -1.77465,7.10141 -7.30382,13.08017 -14.41776,15.59012 -7.06744,2.49354 -39.35321,4.65031 -47.48636,3.17221 l 0,0 z"
       id="path4346"
       inkscape:export-filename="/home/habib/Bureau/Logos vectoriels/path5085.png"
       inkscape:export-xdpi="217"
       inkscape:export-ydpi="217" />
    <path
       style="fill:#ffffff;fill-opacity:0.94117647;fill-rule:nonzero;stroke:none;display:inline"
       d="m 272.4471,286.97797 c 0,-0.11661 1.28571,-4.03906 2.85714,-8.71654 1.57143,-4.67748 2.85714,-8.53442 2.85714,-8.57096 0,-0.0365 -3.21428,-2.44747 -7.14285,-5.35761 -3.92858,-2.91014 -7.14286,-5.54708 -7.14286,-5.85987 0,-0.31279 4.10916,-0.5687 9.13147,-0.5687 l 9.13147,0 2.52356,-7.67857 c 1.57177,-4.78252 2.89154,-7.67858 3.49921,-7.67858 0.60715,0 1.9206,2.87524 3.4775,7.6125 l 2.50185,7.6125 9.52806,0.51031 9.52806,0.51032 -6.26774,4.57688 c -3.44725,2.51729 -6.86377,4.97729 -7.59228,5.46667 -1.27332,0.85538 -1.23483,1.19296 0.99513,8.72888 1.27582,4.3115 2.49017,8.29668 2.69855,8.85595 0.61225,1.64318 -1.41338,0.53081 -8.48448,-4.65923 l -6.49521,-4.76736 -7.39356,5.09772 c -6.71742,4.63153 -8.21016,5.51983 -8.21016,4.88569 z"
       id="path4348"
       inkscape:export-filename="/home/habib/Bureau/Logos vectoriels/path5085.png"
       inkscape:export-xdpi="217"
       inkscape:export-ydpi="217" />
    <path
       style="fill:#ffffff;fill-opacity:0.94117647;fill-rule:nonzero;stroke:none;display:inline"
       d="m 440.76192,285.22572 c 0.2667,-1.08036 1.39782,-4.67637 2.51361,-7.99114 1.11579,-3.31476 2.02871,-6.43305 2.02871,-6.92953 0,-0.49647 -3.05357,-3.23397 -6.78571,-6.08333 -3.73215,-2.84936 -6.78572,-5.42683 -6.78572,-5.72771 0,-0.30087 4.05431,-0.637 9.00958,-0.74695 l 9.00958,-0.19992 2.66286,-7.5 c 1.59011,-4.47855 3.04929,-7.5 3.62208,-7.5 0.59423,0 1.85754,2.88492 3.32014,7.5819 l 2.36094,7.5819 9.4717,0.63239 9.47169,0.63239 -7.32143,5.30215 c -4.02678,2.91618 -7.32142,5.6611 -7.32142,6.09982 0,0.62914 3.13606,11.3472 4.65797,15.91945 0.55548,1.66885 -0.90986,0.89946 -7.82225,-4.10714 -3.7968,-2.75 -7.03769,-5 -7.20196,-5 -0.16427,0 -3.51288,2.25 -7.44135,5 -3.92846,2.75 -7.32069,5 -7.53829,5 -0.21759,0 -0.17742,-0.88393 0.0893,-1.96428 l 0,0 z"
       id="path4350"
       inkscape:export-filename="/home/habib/Bureau/Logos vectoriels/path5085.png"
       inkscape:export-xdpi="217"
       inkscape:export-ydpi="217" />
    <path
       style="fill:#ffffff;fill-opacity:0.94117647;fill-rule:nonzero;stroke:none;display:inline"
       d="m 532.08995,301.39356 c -16.71591,-0.72771 -26.00584,-3.54304 -31.93366,-9.67756 -3.38301,-3.50097 -4.77572,-7.51688 -5.33388,-15.38034 l -0.44637,-6.28852 19.03553,0 19.03553,0 0,6.83268 c 0,9.14336 0.2901,9.5959 6.1515,9.5959 4.25512,0 4.86709,-0.19442 6.84831,-2.17565 1.96774,-1.96773 2.14352,-2.5099 1.83953,-5.67368 -0.64614,-6.72446 -3.03705,-8.59139 -19.28199,-15.05626 -21.48441,-8.54997 -29.85676,-13.70298 -33.12829,-20.38973 -1.71292,-3.5011 -1.85899,-4.44238 -1.56792,-10.10415 0.7271,-14.14364 7.23985,-20.45735 23.78171,-23.0549 6.34539,-0.99641 34.00474,-0.99004 41.07143,0.009 7.39985,1.04662 9.55426,1.84621 15.71429,5.83217 7.63335,4.93931 8.16314,5.86135 8.45787,14.71988 l 0.24359,7.32143 -18.63645,0 -18.63644,0 0,-2.82199 c 0,-1.55209 -0.3463,-4.4367 -0.76955,-6.41025 -0.70042,-3.26596 -0.99663,-3.65098 -3.29771,-4.28633 -5.94513,-1.64153 -8.78988,1.10798 -8.78988,8.49563 0,2.716 0.37209,3.96646 1.52264,5.117 2.17227,2.17228 14.7838,7.95543 22.79222,10.45162 8.85677,2.76062 20.08631,8.32606 23.51651,11.65496 5.51959,5.35658 7.1659,17.65305 3.44917,25.76219 -3.9168,8.54563 -11.77784,13.59769 -23.06626,14.824 -10.00959,1.08739 -16.22104,1.2401 -28.57143,0.70244 l 0,0 z"
       id="path4352"
       inkscape:export-filename="/home/habib/Bureau/Logos vectoriels/path5085.png"
       inkscape:export-xdpi="217"
       inkscape:export-ydpi="217" />
    <path
       style="fill:#ffffff;fill-opacity:0.94117647;fill-rule:nonzero;stroke:none;display:inline"
       d="m 507.4471,361.42654 c -40.69836,-24.232 -77.69635,-35.53297 -120.71429,-36.87197 -47.01484,-1.4634 -86.81519,9.34227 -134.64286,36.55512 -4.71428,2.68233 -8.89285,4.87271 -9.28571,4.86753 -0.39286,-0.005 -16.97642,-9.29693 -36.85236,-20.64833 C 186.07594,333.9775 165.29152,322.44 159.76428,319.69 l -10.04951,-5 -0.0624,-61.25 -0.0624,-61.25 231.42858,0 231.42857,0 0,60.20724 0,60.20723 -18.03572,10.28842 c -9.91964,5.65863 -31.33154,17.94038 -47.58199,27.29277 -16.25046,9.35238 -29.58974,16.99938 -29.64286,16.99331 -0.0531,-0.006 -4.43586,-2.59466 -9.73943,-5.75243 l -2e-5,0 z m 30.13739,-10.75038 c 10.72801,-5.93976 24.16618,-13.60907 29.86261,-17.04291 5.69643,-3.43383 15.11793,-8.73638 20.93668,-11.78343 12.58865,-6.59218 14.28335,-7.91413 15.83016,-12.3482 1.70961,-4.90079 2.45779,-26.78102 2.49096,-72.84733 l 0.0279,-38.75 -226.78571,0 -226.78572,0 0.0402,48.03571 c 0.0446,53.41667 0.37358,61.68079 2.57386,64.66264 0.78916,1.06948 4.30063,3.75128 7.80327,5.95955 12.4704,7.86209 79.10425,43.40701 79.10425,43.40701 98.66449,-59.12558 192.06341,-51.85523 274.15233,1.50652 0.68409,0 10.02125,-4.8598 20.74925,-10.79956 l 0,0 -4e-5,0 z"
       id="path4354"
       sodipodi:nodetypes="csssscccccccccsscccssscccccssccccc"
       inkscape:export-filename="/home/habib/Bureau/Logos vectoriels/path5085.png"
       inkscape:export-xdpi="217"
       inkscape:export-ydpi="217" />
    <path
       id="path4901"
       d="m 353.76339,303.22265 c -10.98877,-1.99708 -22.37966,-7.42383 -25.86915,-12.32438 -2.60939,-3.66454 -3.7667,-8.01834 -3.7667,-14.17036 l 0,-5.77732 19.07605,0 19.07605,0 0,7.01834 c 0,9.70698 0.11598,9.85663 7.63976,9.85663 7.79529,0 8.13933,-0.35323 7.51682,-7.71747 -0.25464,-3.01257 -0.88014,-6.16845 -1.38997,-7.01307 -1.16545,-1.93077 -4.8676,-3.82068 -17.80193,-9.0877 -17.00727,-6.92557 -26.38881,-11.74919 -30.3903,-15.62547 -4.56299,-4.4202 -5.54648,-7.72304 -4.85874,-16.31705 0.83172,-10.39307 4.22032,-15.83073 12.0569,-19.34758 8.40199,-3.77059 27.7806,-5.57705 44.93646,-4.18893 17.05637,1.38007 26.78739,4.87013 31.16156,11.17619 1.95202,2.81415 2.14137,3.67133 2.3744,10.74892 l 0.25323,7.69092 -16.76134,-0.53448 c -13.09216,-0.41747 -17.02314,-0.76912 -17.95728,-1.60642 -0.72329,-0.64829 -1.32727,-2.65552 -1.52822,-5.07885 -0.55505,-6.69314 -5.24182,-9.84071 -11.04348,-7.41663 -2.33755,0.9767 -2.68977,1.48126 -3.14278,4.50222 -0.65313,4.35532 -0.0152,8.24612 1.6549,10.0945 1.98576,2.19767 7.03863,4.5359 22.48537,10.40516 7.72601,2.93562 15.48329,6.07266 17.23841,6.97116 4.30516,2.20399 9.43747,7.04937 11.29928,10.66762 1.89377,3.68033 2.57426,12.8103 1.32686,17.80192 -1.82288,7.29436 -7.50228,13.43557 -14.80952,16.01372 -7.25947,2.5613 -40.4225,4.77668 -48.77664,3.25841 l 0,0 z"
       style="fill:#ffffff;fill-opacity:0.94117647;fill-rule:nonzero;stroke:none;display:inline"
       inkscape:export-filename="/home/habib/Bureau/Logos vectoriels/path5085.png"
       inkscape:export-xdpi="217"
       inkscape:export-ydpi="217" />
    <path
       id="path4903"
       d="m 172.22123,210.76143 69.5861,0 c 0,0 0.54169,18.92919 0.54169,18.92919 l -28.47335,-0.14384 0,16.92894 27.85714,0 0,18.57142 -26.17123,0.88388 -0.11707,17.68755 c 0,0 27.01883,0.36248 27.01883,0.36248 0,0 0.31486,18.64894 0.31486,18.64894 0,0 -69.73523,0.39431 -69.73523,0.39431 l -0.82174,-92.26287 z"
       style="fill:#ffffff;fill-opacity:0.94117647;fill-rule:nonzero;stroke:none;display:inline"
       sodipodi:nodetypes="ccccccccccccc"
       inkscape:export-filename="/home/habib/Bureau/Logos vectoriels/path5085.png"
       inkscape:export-xdpi="217"
       inkscape:export-ydpi="217" />
    <path
       id="path4905"
       d="M 533.02786,304.15834 C 515.5811,303.39882 505.885,300.46039 499.698,294.05766 c -3.53092,-3.65404 -4.98452,-7.84553 -5.56708,-16.05279 l -0.46589,-6.56347 19.8678,0 19.86779,0 0,7.13142 c 0,9.54312 0.30279,10.01545 6.42046,10.01545 4.44116,0 5.07989,-0.20292 7.14773,-2.27077 2.05377,-2.05377 2.23724,-2.61964 1.91996,-5.92175 -0.67439,-7.01846 -3.16984,-8.96702 -20.12504,-15.71454 -22.42374,-8.92379 -31.16215,-14.3021 -34.57671,-21.28121 -1.78781,-3.65417 -1.94027,-4.63661 -1.63647,-10.54592 0.75889,-14.76202 7.55638,-21.35178 24.82148,-24.0629 6.62282,-1.03997 35.49149,-1.03333 42.86715,0.009 7.72338,1.09238 9.97199,1.92693 16.40134,6.08717 7.9671,5.15526 8.52005,6.11762 8.82767,15.36346 l 0.25424,7.64153 -19.45127,0 -19.45126,0 0,-2.94537 c 0,-1.61995 -0.36144,-4.63068 -0.80319,-6.69052 -0.73105,-3.40875 -1.04021,-3.81061 -3.4419,-4.47373 -6.20506,-1.7133 -9.17419,1.15642 -9.17419,8.86707 0,2.83475 0.38836,4.13988 1.58922,5.34072 2.26724,2.26726 15.43017,8.30326 23.78873,10.90859 9.24401,2.88132 20.96452,8.69009 24.5447,12.16453 5.76091,5.59078 7.4792,18.42487 3.59997,26.88856 -4.08805,8.91926 -12.29279,14.1922 -24.07476,15.47213 -10.44722,1.13493 -16.93025,1.29432 -29.82062,0.73315 l 0,0 z"
       style="fill:#ffffff;fill-opacity:0.94117647;fill-rule:nonzero;stroke:none;display:inline"
       inkscape:export-filename="/home/habib/Bureau/Logos vectoriels/path5085.png"
       inkscape:export-xdpi="217"
       inkscape:export-ydpi="217" />
    <path
       style="fill:#ffffff;fill-opacity:0.94117647;fill-rule:nonzero;stroke:none;display:inline"
       d="M 533.02786,304.15834 C 515.5811,303.39882 505.885,300.46039 499.698,294.05766 c -3.53092,-3.65404 -4.98452,-7.84553 -5.56708,-16.05279 l -0.46589,-8.83631 19.61526,0.25253 20.37287,-0.25254 0.25254,9.40427 c 0,9.54312 -0.20229,10.01545 5.91538,10.01545 4.44116,0 5.07989,-0.20292 7.14773,-2.27077 2.05377,-2.05377 2.23724,-2.61964 1.91996,-5.92175 -0.67439,-7.01846 -3.16984,-8.96702 -20.12504,-15.71454 -22.42374,-8.92379 -31.16215,-14.3021 -34.57671,-21.28121 -1.78781,-3.65417 -1.94027,-4.63661 -1.63647,-10.54592 0.75889,-14.76202 7.55638,-21.35178 24.82148,-24.0629 6.62282,-1.03997 35.49149,-1.03333 42.86715,0.009 7.72338,1.09238 9.97199,1.92693 16.40134,6.08717 7.9671,5.15526 8.52005,6.11762 8.82767,15.36346 l 0.25424,7.64153 -19.45127,0 -19.45126,0 0,-2.94537 c 0,-1.61995 -0.36144,-4.63068 -0.80319,-6.69052 -0.73105,-3.40875 -1.04021,-3.81061 -3.4419,-4.47373 -6.20506,-1.7133 -9.17419,1.15642 -9.17419,8.86707 0,2.83475 0.38836,4.13988 1.58922,5.34072 2.26724,2.26726 15.43017,8.30326 23.78873,10.90859 9.24401,2.88132 20.96452,8.69009 24.5447,12.16453 5.76091,5.59078 7.4792,18.42487 3.59997,26.88856 -4.08805,8.91926 -12.29279,14.1922 -24.07476,15.47213 -10.44722,1.13493 -16.93025,1.29432 -29.82062,0.73315 l 0,0 0,8.7e-4 z"
       id="path4907"
       sodipodi:nodetypes="cscccccssssssssscccccssssssssccc"
       inkscape:export-filename="/home/habib/Bureau/Logos vectoriels/path5085.png"
       inkscape:export-xdpi="217"
       inkscape:export-ydpi="217" />
    <path
       sodipodi:nodetypes="csssscccccccccsscccssscccccssccccc"
       id="path4909"
       d="m 507.4471,361.42654 c -40.69836,-24.232 -77.69635,-35.53297 -120.71429,-36.87197 -47.01484,-1.4634 -86.81519,9.34227 -134.64286,36.55512 -4.71428,2.68233 -8.89285,4.87271 -9.28571,4.86753 -0.39286,-0.005 -16.97642,-9.29693 -36.85236,-20.64833 C 186.07594,333.9775 165.29152,322.44 159.76428,319.69 l -10.04951,-5 -0.0624,-61.25 -0.0624,-61.25 231.42858,0 231.42857,0 0,60.20724 0,60.20723 -18.03572,10.28842 c -9.91964,5.65863 -31.33154,17.94038 -47.58199,27.29277 -16.25046,9.35238 -29.58974,16.99938 -29.64286,16.99331 -0.0531,-0.006 -4.43586,-2.59466 -9.73943,-5.75243 l -2e-5,0 z m 30.13739,-10.75038 c 10.72801,-5.93976 24.16618,-13.60907 29.86261,-17.04291 5.69643,-3.43383 15.11793,-8.73638 20.93668,-11.78343 12.58865,-6.59218 14.28335,-7.91413 15.83016,-12.3482 1.70961,-4.90079 2.45779,-26.78102 2.49096,-72.84733 l 0.0279,-38.75 -226.78571,0 -226.78572,0 0.0402,48.03571 c 0.0446,53.41667 0.37358,61.68079 2.57386,64.66264 0.78916,1.06948 4.30063,3.75128 7.80327,5.95955 12.4704,7.86209 79.10425,43.40701 79.10425,43.40701 98.66449,-59.12558 192.06341,-51.85523 274.15233,1.50652 0.68409,0 10.02125,-4.8598 20.74925,-10.79956 l 0,0 -4e-5,0 z"
       style="fill:#ffffff;fill-opacity:0.94117647;fill-rule:nonzero;stroke:none;display:inline"
       inkscape:export-filename="/home/habib/Bureau/Logos vectoriels/path5085.png"
       inkscape:export-xdpi="217"
       inkscape:export-ydpi="217" />
    <path
       sodipodi:nodetypes="cacccc"
       id="path3706"
       d="m 323.81336,849.54576 c 11.96428,30.53572 58.21429,51.96429 58.21429,51.96429 41.60714,-14.46429 61.07142,-52.14286 61.07142,-52.14286 l 0,-108.57143 -119.46428,1.42857 0.17857,107.32143 z"
       style="fill:#d40000;fill-opacity:1;stroke:#aa0000;stroke-width:3;stroke-linecap:butt;stroke-linejoin:miter;stroke-miterlimit:4;stroke-opacity:0.94117647;stroke-dasharray:none;display:inline" />
    <path
       style="fill:none;stroke:#fafafa;stroke-width:3;stroke-linecap:butt;stroke-linejoin:miter;stroke-miterlimit:4;stroke-opacity:1;stroke-dasharray:none;display:inline"
       d="m 326.96991,848.04081 c 11.33013,28.91721 55.12873,49.21005 55.12873,49.21005 39.40181,-13.6977 57.83441,-49.37916 57.83441,-49.37916 l 0,-102.81676 -113.13224,1.35285 0.1691,101.63302 z"
       id="path3708"
       sodipodi:nodetypes="cacccc" />
    <g
       transform="matrix(1.1603193,0,0,1,517.74173,-48.423567)"
       style="font-size:42px;font-style:normal;font-variant:normal;font-weight:bold;font-stretch:normal;text-align:justify;line-height:100%;writing-mode:lr-tb;text-anchor:start;fill:#ffffff;fill-opacity:1;stroke:none;display:inline;font-family:Century Schoolbook L;-inkscape-font-specification:Century Schoolbook L Bold"
       id="flowRoot3710">
      <path
         d="m -149.41077,800.38634 -1.47,0 c -2.60399,1.974 -5.67,2.814 -10.626,2.898 l 0,2.352 1.764,0 c 3.738,0.042 3.738,0.042 3.738,3.528 l 0,14.91 c 0,2.604 0,2.81401 -0.294,3.15 -0.378,0.462 -1.26,0.63 -3.486,0.63 l -1.344,0 0,2.268 16.758,0 0,-2.268 -1.344,0 c -2.142,0 -3.066,-0.168 -3.402,-0.63 -0.294,-0.33599 -0.294,-0.504 -0.294,-3.15 l 0,-23.688"
         id="path3752" />
      <path
         d="m -125.37758,816.30434 c 0,1.848 0,2.26801 -0.084,3.276 -0.462,6.006 -2.31,8.946 -5.67,8.946 -0.924,0 -1.428,-0.336 -1.428,-0.84 0,-0.25199 0.084,-0.504 0.252,-0.756 0.756,-1.21799 0.84,-1.47 0.84,-2.394 0,-2.01599 -1.428,-3.402 -3.528,-3.402 -2.31,0 -3.99,1.76401 -3.99,4.2 0,3.276 3.066,5.376 7.812,5.376 4.326,0 7.812,-1.764 9.996,-5.082 2.1,-3.10799 3.192,-7.14 3.192,-11.718 0,-3.82199 -0.84,-6.72 -2.604,-9.114 -2.142,-2.85599 -5.208,-4.41 -8.736,-4.41 -6.08999,0 -10.5,4.24201 -10.5,10.08 0,4.956 3.528,8.61 8.316,8.61 2.604,0 4.368,-0.798 6.132,-2.772 m -3.612,-13.734 c 1.092,0 2.016,0.67201 2.52,1.89 0.546,1.218 0.924,3.48601 0.924,5.418 0,3.696 -1.344,6.048 -3.486,6.048 -1.176,0 -2.31,-0.756 -2.814,-1.806 -0.462,-1.00799 -0.714,-2.52 -0.714,-4.62 0,-4.57799 1.218,-6.93 3.57,-6.93"
         id="path3754" />
      <path
         d="m -96.724392,818.95034 -0.462,2.1 c -0.378,1.68 -0.630001,2.226 -0.966,2.436 -0.42,0.294 -0.504003,0.294 -3.149998,0.336 l -8.106,0 c 1.47,-1.25999 2.562,-2.058 4.2,-3.15 5.837992,-3.77999 7.139999,-4.746 8.357998,-6.3 1.427998,-1.88999 2.268,-4.116 2.268,-6.09 0,-4.49399 -4.410006,-7.896 -10.331998,-7.896 -5.712,0 -10.122,3.69601 -10.122,8.484 0,2.94 1.638,4.83 4.158,4.83 2.184,0 3.57,-1.386 3.57,-3.57 0,-1.80599 -0.798,-2.856 -2.73,-3.78 -0.462,-0.21 -0.672,-0.462 -0.672,-0.798 0,-1.34399 2.268,-2.772 4.368,-2.772 2.93999,0 4.62,1.80601 4.62,4.914 0,3.486 -1.34401,5.96401 -5.796,10.71 -4.704,4.956 -6.342,6.88801 -8.442,9.912 l 0,1.974 c 1.092,-0.126 1.596,-0.168 2.184,-0.168 l 15.791998,0 c 0.713999,0 1.302001,0.042 2.562,0.168 l 0.966,-11.34 -2.268,0"
         id="path3756" />
      <path
         d="m -86.047205,806.98034 c 1.973998,0.42 3.654002,0.63 5.292,0.63 3.485997,0 6.342002,-1.176 7.938,-3.234 0.797999,-1.04999 1.428,-2.604 1.428,-3.528 0,-0.25199 -0.126,-0.462 -0.336,-0.462 -0.168,0 -0.42,0.042 -0.672,0.126 -1.385998,0.336 -4.326003,0.588 -7.602,0.588 -3.485996,0 -5.586002,-0.168 -8.19,-0.714 -0.168,3.36 -0.42,6.51001 -0.966,13.776 -0.923999,0.924 -1.092,1.21801 -1.092,1.89 0,0.882 0.672001,1.554 1.554,1.554 0.923999,0 1.722,-0.756 1.722,-1.68 0,-0.168 -0.042,-0.42 -0.084,-0.672 1.259999,-1.04999 2.940002,-1.596 4.662,-1.596 3.149997,0 4.746,2.31001 4.746,6.846 0,5.082 -1.806003,7.812 -5.166,7.812 -1.889998,0 -3.696,-0.882 -3.696,-1.764 0,-0.25199 0.126001,-0.378 0.504,-0.588 1.637999,-0.79799 2.268,-1.596 2.268,-3.024 0,-2.05799 -1.428002,-3.444 -3.57,-3.444 -2.435997,0 -4.032,1.68001 -4.032,4.284 0,4.2 3.780006,6.93 9.576,6.93 6.887993,0 11.592,-4.242 11.592,-10.416 0,-5.45999 -4.410006,-9.492 -10.458,-9.492 -1.973998,0 -3.276003,0.33601 -6.048,1.596 l 0.63,-5.418"
         id="path3758" />
    </g>
    <g
       transform="matrix(1.3203224,0,0,2.0231584,546.85295,-833.94687)"
       style="font-size:18.56697845px;font-style:normal;font-variant:normal;font-weight:bold;font-stretch:normal;text-align:justify;line-height:100%;writing-mode:lr-tb;text-anchor:start;fill:#ffffff;fill-opacity:1;stroke:none;display:inline;font-family:Century Schoolbook L;-inkscape-font-specification:Century Schoolbook L Bold"
       id="flowRoot3718">
      <path
         d="m -154.11429,799.48449 -0.83552,0 -0.96548,0.85408 c -1.03975,-0.70555 -2.04237,-1.00262 -3.34206,-1.00262 -2.85931,0 -4.80884,1.67103 -4.80884,4.14044 0,2.26516 1.67103,3.88049 4.58604,4.41894 l 1.15115,0.2228 c 1.18829,0.2228 1.55963,0.31564 2.00524,0.55701 0.51987,0.2785 0.81694,0.83551 0.81694,1.48536 0,1.29969 -1.05832,2.17233 -2.67364,2.17233 -2.09807,0 -3.9362,-1.65246 -4.95739,-4.4375 l -0.94691,0 0.1114,5.25445 0.83551,0 1.15116,-1.09545 c 1.13258,0.85408 2.32087,1.24399 3.80623,1.24399 2.89644,0 4.90168,-1.81957 4.90168,-4.41894 0,-2.35801 -1.39253,-3.67627 -4.60461,-4.38181 l -0.89122,-0.20424 c -1.42965,-0.2785 -1.42965,-0.2785 -1.89383,-0.4456 -0.83551,-0.29708 -1.26255,-0.83552 -1.26255,-1.59676 0,-1.13259 1.03975,-1.94954 2.50654,-1.94954 1.93096,0 3.47203,1.35539 4.56748,3.9919 l 0.98405,0 -0.24137,-4.80884"
         id="path3761" />
      <path
         d="m -144.88709,799.33595 c -1.80099,0 -3.32349,0.51988 -4.53034,1.57819 -1.55962,1.33682 -2.48797,3.4349 -2.48797,5.60723 0,3.9362 2.89645,6.77695 6.92548,6.77695 1.89383,0 3.36062,-0.46418 4.60461,-1.44823 1.59676,-1.28112 2.48798,-3.17495 2.48798,-5.34729 0,-2.15376 -0.94692,-4.2704 -2.48798,-5.58866 -1.24399,-1.07688 -2.69221,-1.57819 -4.51178,-1.57819 m 0.0186,0.96548 c 1.00262,0 1.78243,0.48274 2.32087,1.42966 0.61271,1.11402 0.94692,2.78505 0.94692,4.79028 0,3.76909 -1.15116,5.81146 -3.26779,5.81146 -1.07688,0 -1.8567,-0.46417 -2.37657,-1.42965 -0.61271,-1.15115 -0.94692,-2.78505 -0.94692,-4.73458 0,-2.00523 0.31564,-3.4906 0.94692,-4.54891 0.53844,-0.90978 1.28112,-1.31826 2.37657,-1.31826"
         id="path3763" />
      <path
         d="m -131.59342,802.2881 c 0,-1.16972 0,-1.24399 0.12997,-1.39252 0.1671,-0.20424 0.57558,-0.27851 1.54106,-0.27851 l 0.2785,0 0,-1.00262 -7.22255,0 0,1.00262 0.2785,0 c 0.96548,0 1.35539,0.0743 1.52249,0.27851 0.12997,0.14853 0.12997,0.2228 0.12997,1.39252 l 0,5.88573 c 0,1.55963 0.12997,2.33944 0.48274,2.98928 0.76125,1.39253 2.56225,2.13521 5.18019,2.13521 2.37657,0 3.80623,-0.63128 4.71601,-2.06094 0.51988,-0.83551 0.66842,-1.67103 0.66842,-3.86193 l 0,-3.73196 c 0,-1.63389 0.0928,-2.11664 0.48274,-2.52511 0.29707,-0.31564 0.81694,-0.48274 1.55962,-0.50131 l 0,-1.00262 -5.29159,0 0,1.00262 c 0.72412,0.0186 1.22543,0.18567 1.5225,0.50131 0.3899,0.40847 0.48274,0.87265 0.48274,2.52511 l 0,3.73196 c 0,1.52249 -0.0743,2.24661 -0.31564,2.76648 -0.53844,1.16972 -1.61533,1.76386 -3.15639,1.76386 -1.05831,0 -1.8567,-0.31564 -2.37657,-0.90978 -0.40847,-0.50131 -0.61271,-1.41109 -0.61271,-2.76648 l 0,-5.94143"
         id="path3765" />
      <path
         d="m -110.74299,799.48449 -0.83552,0 -0.96548,0.85408 c -1.03975,-0.70555 -2.04237,-1.00262 -3.34206,-1.00262 -2.85931,0 -4.80884,1.67103 -4.80884,4.14044 0,2.26516 1.67103,3.88049 4.58604,4.41894 l 1.15115,0.2228 c 1.18829,0.2228 1.55963,0.31564 2.00524,0.55701 0.51987,0.2785 0.81694,0.83551 0.81694,1.48536 0,1.29969 -1.05832,2.17233 -2.67364,2.17233 -2.09807,0 -3.9362,-1.65246 -4.95739,-4.4375 l -0.94691,0 0.1114,5.25445 0.83551,0 1.15116,-1.09545 c 1.13258,0.85408 2.32087,1.24399 3.80623,1.24399 2.89644,0 4.90168,-1.81957 4.90168,-4.41894 0,-2.35801 -1.39253,-3.67627 -4.60461,-4.38181 l -0.89122,-0.20424 c -1.42965,-0.2785 -1.42965,-0.2785 -1.89383,-0.4456 -0.83551,-0.29708 -1.26255,-0.83552 -1.26255,-1.59676 0,-1.13259 1.03975,-1.94954 2.50654,-1.94954 1.93096,0 3.47203,1.35539 4.56748,3.9919 l 0.98405,0 -0.24137,-4.80884"
         id="path3767" />
      <path
         d="m -98.340834,799.48449 -0.835514,0 -0.965482,0.85408 c -1.03975,-0.70555 -2.04237,-1.00262 -3.34206,-1.00262 -2.85931,0 -4.80884,1.67103 -4.80884,4.14044 0,2.26516 1.67103,3.88049 4.58604,4.41894 l 1.15115,0.2228 c 1.18829,0.2228 1.55963,0.31564 2.00524,0.55701 0.51987,0.2785 0.816943,0.83551 0.816943,1.48536 0,1.29969 -1.058323,2.17233 -2.673643,2.17233 -2.09807,0 -3.9362,-1.65246 -4.95739,-4.4375 l -0.94691,0 0.1114,5.25445 0.83551,0 1.15116,-1.09545 c 1.13258,0.85408 2.32087,1.24399 3.80623,1.24399 2.896444,0 4.901681,-1.81957 4.901681,-4.41894 0,-2.35801 -1.392527,-3.67627 -4.604611,-4.38181 l -0.89122,-0.20424 c -1.42965,-0.2785 -1.42965,-0.2785 -1.89383,-0.4456 -0.83551,-0.29708 -1.26255,-0.83552 -1.26255,-1.59676 0,-1.13259 1.03975,-1.94954 2.50654,-1.94954 1.93096,0 3.47203,1.35539 4.567477,3.9919 l 0.98405,0 -0.241371,-4.80884"
         id="path3769" />
      <path
         d="m -84.100542,799.61445 -12.458443,0 0,1.00262 0.278505,0 c 0.965482,0 1.35539,0.0743 1.522492,0.27851 0.129969,0.14853 0.129969,0.2228 0.129969,1.39252 l 0,8.05807 c 0,1.16972 0,1.24399 -0.129969,1.39252 -0.167102,0.20424 -0.55701,0.27851 -1.522492,0.27851 l -0.278505,0 0,1.00261 12.606979,0 0.222804,-4.99451 -0.98405,0 c -0.779813,2.78504 -2.098071,3.9919 -4.344673,3.9919 l -0.55701,0 c -0.909781,0 -1.151153,-0.0371 -1.373956,-0.25994 -0.241371,-0.22281 -0.297072,-0.42704 -0.297072,-1.03975 l 0,-4.12187 0.315639,0 c 1.448223,0 2.358006,0.92835 2.562243,2.63651 l 1.002617,0 0,-6.29421 -1.002617,0 c -0.204237,1.70816 -1.11402,2.63651 -2.562243,2.63651 l -0.315639,0 0,-3.36062 c 0,-0.76124 0.03713,-0.96548 0.18567,-1.18829 0.204237,-0.2785 0.649845,-0.40847 1.41109,-0.40847 l 0.519876,0 c 1.373955,0 2.506543,0.50131 3.137819,1.37396 0.389906,0.55701 0.798381,1.48536 1.076885,2.45084 l 0.965483,0 -0.111402,-4.82742"
         id="path3771" />
    </g>
    <g
       transform="matrix(1.2349825,0,0,2.3812639,533.67545,-1089.9454)"
       style="font-size:18.56697845px;font-style:normal;font-variant:normal;font-weight:bold;font-stretch:normal;text-align:justify;line-height:100%;writing-mode:lr-tb;text-anchor:start;fill:#ffffff;fill-opacity:1;stroke:none;display:inline;font-family:Century Schoolbook L;-inkscape-font-specification:Century Schoolbook L Bold"
       id="flowRoot3726">
      <path
         d="m -152.18333,799.61445 -12.29134,0 -0.2785,5.03166 0.98405,0 c 0.24137,-1.37396 0.50131,-2.09807 0.94691,-2.74792 0.59415,-0.89121 1.29969,-1.31825 2.15377,-1.31825 0.55701,0 0.66841,0.12997 0.66841,0.76124 l 0,9.00499 c 0,1.16972 0,1.24399 -0.12996,1.39252 -0.16711,0.20424 -0.55702,0.27851 -1.54106,0.27851 l -0.40848,0 0,1.00261 7.50106,0 0,-1.00261 -0.40847,0 c -0.98405,0 -1.37396,-0.0743 -1.54106,-0.27851 -0.12997,-0.14853 -0.12997,-0.2228 -0.12997,-1.39252 l 0,-9.00499 c 0,-0.63127 0.1114,-0.76124 0.66841,-0.76124 0.79838,0 1.41109,0.3342 2.00523,1.09545 0.51988,0.68698 0.81695,1.46679 1.09546,2.97072 l 0.98405,0 -0.27851,-5.03166"
         id="path3774" />
      <path
         d="m -146.06261,802.2881 c 0,-1.16972 0,-1.24399 0.12997,-1.39252 0.1671,-0.20424 0.57558,-0.27851 1.54106,-0.27851 l 0.27851,0 0,-1.00262 -7.22256,0 0,1.00262 0.27851,0 c 0.96548,0 1.35539,0.0743 1.52249,0.27851 0.12997,0.14853 0.12997,0.2228 0.12997,1.39252 l 0,5.88573 c 0,1.55963 0.12997,2.33944 0.48274,2.98928 0.76124,1.39253 2.56224,2.13521 5.18019,2.13521 2.37657,0 3.80623,-0.63128 4.71601,-2.06094 0.51987,-0.83551 0.66841,-1.67103 0.66841,-3.86193 l 0,-3.73196 c 0,-1.63389 0.0928,-2.11664 0.48274,-2.52511 0.29707,-0.31564 0.81695,-0.48274 1.55963,-0.50131 l 0,-1.00262 -5.29159,0 0,1.00262 c 0.72411,0.0186 1.22542,0.18567 1.52249,0.50131 0.38991,0.40847 0.48274,0.87265 0.48274,2.52511 l 0,3.73196 c 0,1.52249 -0.0743,2.24661 -0.31564,2.76648 -0.53844,1.16972 -1.61533,1.76386 -3.15638,1.76386 -1.05832,0 -1.8567,-0.31564 -2.37658,-0.90978 -0.40847,-0.50131 -0.61271,-1.41109 -0.61271,-2.76648 l 0,-5.94143"
         id="path3776" />
      <path
         d="m -131.11648,799.61445 -4.67888,0 0,1.02119 c 0.83551,0.0186 1.50393,0.37134 1.9681,1.03975 l 0,7.31539 c 0,1.63389 -0.0928,2.09807 -0.48274,2.50654 -0.29707,0.31564 -0.72411,0.46417 -1.52249,0.50131 l 0,1.00262 5.29159,0 0,-1.00262 c -0.79838,-0.0371 -1.26256,-0.18567 -1.55963,-0.50131 -0.38991,-0.40847 -0.48274,-0.87265 -0.48274,-2.50654 l 0,-6.10854 8.63364,10.26754 1.24399,0 0,-9.50629 c 0,-1.65246 0.0928,-2.11664 0.48274,-2.52511 0.29707,-0.31564 0.81695,-0.48274 1.55963,-0.50131 l 0,-1.00262 -5.29159,0 0,1.00262 c 0.72411,0.0186 1.22542,0.18567 1.52249,0.50131 0.38991,0.40847 0.48274,0.89122 0.48274,2.52511 l 0,4.36324 -7.16685,-8.39228"
         id="path3778" />
      <path
         d="m -118.19416,810.34617 c 0,1.16972 0,1.24399 -0.12996,1.39252 -0.16711,0.20424 -0.55701,0.27851 -1.5225,0.27851 l -0.2785,0 0,1.00261 7.22255,0 0,-1.00261 -0.2785,0 c -0.96548,0 -1.37396,-0.0743 -1.54106,-0.27851 -0.12997,-0.14853 -0.12997,-0.20424 -0.12997,-1.39252 l 0,-8.05807 c 0,-1.18829 0,-1.24399 0.12997,-1.39252 0.1671,-0.20424 0.57558,-0.27851 1.54106,-0.27851 l 0.2785,0 0,-1.00262 -7.22255,0 0,1.00262 0.2785,0 c 0.96549,0 1.35539,0.0743 1.5225,0.27851 0.12996,0.14853 0.12996,0.2228 0.12996,1.39252 l 0,8.05807"
         id="path3780" />
      <path
         d="m -101.49577,799.48449 -0.83551,0 -0.96548,0.85408 c -1.03975,-0.70555 -2.04237,-1.00262 -3.34206,-1.00262 -2.85931,0 -4.80885,1.67103 -4.80885,4.14044 0,2.26516 1.67103,3.88049 4.58605,4.41894 l 1.15115,0.2228 c 1.18828,0.2228 1.55963,0.31564 2.00523,0.55701 0.51988,0.2785 0.81695,0.83551 0.81695,1.48536 0,1.29969 -1.05832,2.17233 -2.67365,2.17233 -2.09806,0 -3.9362,-1.65246 -4.95738,-4.4375 l -0.94691,0 0.1114,5.25445 0.83551,0 1.15115,-1.09545 c 1.13259,0.85408 2.32088,1.24399 3.80623,1.24399 2.89645,0 4.90169,-1.81957 4.90169,-4.41894 0,-2.35801 -1.39253,-3.67627 -4.60461,-4.38181 l -0.89122,-0.20424 c -1.42965,-0.2785 -1.42966,-0.2785 -1.89383,-0.4456 -0.83551,-0.29708 -1.26256,-0.83552 -1.26256,-1.59676 0,-1.13259 1.03976,-1.94954 2.50655,-1.94954 1.93096,0 3.47202,1.35539 4.56747,3.9919 l 0.98405,0 -0.24137,-4.80884"
         id="path3782" />
      <path
         d="m -97.560145,810.34617 c 0,1.16972 0,1.24399 -0.129969,1.39252 -0.167103,0.20424 -0.55701,0.27851 -1.522492,0.27851 l -0.278505,0 0,1.00261 7.222555,0 0,-1.00261 -0.278505,0 c -0.965482,0 -1.373957,-0.0743 -1.541059,-0.27851 -0.129969,-0.14853 -0.129969,-0.20424 -0.129969,-1.39252 l 0,-8.05807 c 0,-1.18829 0,-1.24399 0.129969,-1.39252 0.167102,-0.20424 0.575577,-0.27851 1.541059,-0.27851 l 0.278505,0 0,-1.00262 -7.222555,0 0,1.00262 0.278505,0 c 0.965482,0 1.355389,0.0743 1.522492,0.27851 0.129969,0.14853 0.129969,0.2228 0.129969,1.39252 l 0,8.05807"
         id="path3784" />
      <path
         d="m -79.02363,799.61445 -12.458443,0 0,1.00262 0.278505,0 c 0.965482,0 1.35539,0.0743 1.522492,0.27851 0.129969,0.14853 0.129969,0.2228 0.129969,1.39252 l 0,8.05807 c 0,1.16972 0,1.24399 -0.129969,1.39252 -0.167102,0.20424 -0.55701,0.27851 -1.522492,0.27851 l -0.278505,0 0,1.00261 12.606979,0 0.222803,-4.99451 -0.984049,0 c -0.779813,2.78504 -2.098071,3.9919 -4.344673,3.9919 l -0.55701,0 c -0.909781,0 -1.151153,-0.0371 -1.373956,-0.25994 -0.241371,-0.22281 -0.297072,-0.42704 -0.297072,-1.03975 l 0,-4.12187 0.315639,0 c 1.448223,0 2.358006,0.92835 2.562243,2.63651 l 1.002617,0 0,-6.29421 -1.002617,0 c -0.204237,1.70816 -1.11402,2.63651 -2.562243,2.63651 l -0.315639,0 0,-3.36062 c 0,-0.76124 0.03713,-0.96548 0.18567,-1.18829 0.204237,-0.2785 0.649845,-0.40847 1.41109,-0.40847 l 0.519876,0 c 1.373955,0 2.506543,0.50131 3.137819,1.37396 0.389906,0.55701 0.798381,1.48536 1.076885,2.45084 l 0.965483,0 -0.111402,-4.82742"
         id="path3786" />
    </g>
    <path
       transform="translate(721.65676,133.74408)"
       d="m -329.64285,753.07649 -9.9558,-6.98237 -9.86123,7.11531 3.56413,-11.6262 -9.81436,-7.17983 12.15855,-0.20301 3.79562,-11.55269 3.95027,11.50073 12.16018,0.0399 -9.71715,7.31086 z"
       inkscape:randomized="0"
       inkscape:rounded="0"
       inkscape:flatsided="false"
       sodipodi:arg2="1.5640881"
       sodipodi:arg1="0.93576959"
       sodipodi:r2="6.5891976"
       sodipodi:r1="16.857748"
       sodipodi:cy="739.50507"
       sodipodi:cx="-339.64285"
       sodipodi:sides="5"
       id="path3734"
       style="fill:#ffffff;fill-opacity:1;fill-rule:nonzero;stroke:none"
       sodipodi:type="star" />
  </g>
</svg>
